<?xml version="1.0" standalone="no"?>
<!DOCTYPE svg PUBLIC "-//W3C//DTD SVG 1.1//EN" "http://www.w3.org/Graphics/SVG/1.1/DTD/svg11.dtd" >
<svg xmlns="http://www.w3.org/2000/svg">
<metadata>Generated by IcoMoon</metadata>
<defs>
<font id="icomoon" horiz-adv-x="1024">
<font-face units-per-em="1024" ascent="960" descent="-64" />
<missing-glyph horiz-adv-x="1024" />
<glyph unicode="&#x20;" horiz-adv-x="512" d="" />
<glyph unicode="&#xe600;" glyph-name="dots" d="M1025.733 447.134c0-283.248-229.618-512.866-512.866-512.866s-512.866 229.618-512.866 512.866c0 283.248 229.618 512.866 512.866 512.866s512.866-229.618 512.866-512.866z" />
<glyph unicode="&#xe601;" glyph-name="hex-00-outline" horiz-adv-x="876" d="M267.977 448c0 28.444 2.246 56.889 7.485 85.333s13.474 53.895 26.199 77.099c12.725 22.456 29.942 41.17 51.649 55.392s50.152 21.708 83.836 21.708 61.38-7.485 83.836-21.708c21.708-14.222 39.673-32.936 51.649-55.392 12.725-22.456 21.708-48.655 26.199-77.099 5.24-28.444 7.485-56.889 7.485-85.333s-2.246-56.889-7.485-85.333c-5.24-28.444-13.474-53.895-26.199-77.099-12.725-22.456-29.942-41.17-51.649-55.392s-50.152-21.708-83.836-21.708-61.38 7.485-83.836 21.708c-21.708 14.222-39.673 32.936-51.649 55.392-12.725 22.456-21.708 48.655-26.199 77.099-5.24 27.696-7.485 56.14-7.485 85.333zM364.538 448c0-23.205 0.749-45.661 2.246-66.62s5.24-38.924 10.48-55.392c5.24-15.719 12.725-28.444 21.708-37.427 9.731-8.982 21.708-13.474 38.175-13.474 15.719 0 28.444 4.491 38.175 13.474s16.468 21.708 21.708 37.427c5.24 15.719 8.234 34.433 10.48 55.392 1.497 20.959 2.246 42.667 2.246 66.62s-0.749 45.661-2.246 66.62c-1.497 20.959-5.24 38.924-10.48 55.392-5.24 15.719-12.725 28.444-21.708 37.427-9.731 8.982-21.708 13.474-38.175 13.474-15.719 0-28.444-4.491-38.175-13.474s-16.468-21.708-21.708-37.427c-5.24-15.719-8.234-34.433-10.48-55.392-1.497-21.708-2.246-43.415-2.246-66.62zM437.895-64l-437.895 256v512l437.895 256 437.895-256v-511.251l-437.895-256.749zM59.883 226.433l374.269-220.819 374.269 220.819v443.135l-374.269 220.819-374.269-220.819v-443.135z" />
<glyph unicode="&#xe602;" glyph-name="hex-00-solid" horiz-adv-x="867" d="M433.518 960l-433.518-255.626v-512l433.518-256.374 433.518 255.626v512.747l-433.518 255.626zM592.724 359.801c-5.232-29.15-13.454-54.564-26.908-77.734-12.707-23.171-29.898-41.857-52.321-56.058s-50.079-21.676-84.461-21.676-62.038 7.474-84.461 21.676c-22.423 14.201-39.615 32.888-52.321 56.058s-21.676 48.584-26.908 77.734c-5.232 29.15-7.474 57.553-7.474 86.704s2.242 57.553 7.474 86.704c5.232 29.15 13.454 54.564 26.908 77.734 12.707 23.171 29.898 41.857 52.321 56.058s50.079 21.676 84.461 21.676 62.038-7.474 84.461-21.676c22.423-14.201 39.615-32.888 52.321-56.058s21.676-48.584 26.908-77.734c5.232-29.15 7.474-57.553 7.474-86.704s-2.99-57.553-7.474-86.704zM489.577 569.086c-5.232 15.696-12.707 28.403-21.676 38.12-9.717 8.969-22.423 13.454-38.12 13.454-16.444 0-29.15-4.485-38.12-13.454-9.717-8.969-16.444-21.676-21.676-38.12-5.232-15.696-8.969-34.382-10.464-55.311s-2.242-43.352-2.242-67.27c0-23.918 0.747-45.594 2.242-67.27 1.495-20.928 5.232-39.615 10.464-55.311 5.232-16.444 12.707-28.403 21.676-38.12 9.717-8.969 22.423-13.454 38.12-13.454s29.15 4.485 38.12 13.454c9.717 8.969 16.444 21.676 21.676 38.12 5.232 15.696 8.969 34.382 10.464 55.311s2.242 43.352 2.242 67.27c0 23.918-0.747 45.594-2.242 67.27-2.242 20.928-5.232 39.615-10.464 55.311z" />
<glyph unicode="&#xe603;" glyph-name="hex-01-outline" horiz-adv-x="876" d="M335.345 288.561h70.363v309.895c-15.719-14.222-31.439-26.947-48.655-39.673-17.216-11.977-34.433-23.953-52.398-35.93v88.327c17.965 11.228 34.433 22.456 50.901 33.684 15.719 11.228 31.439 23.205 47.158 35.93h96.561v-392.234h69.614v-66.62h-233.544v66.62zM437.895-64l-437.895 256v512l437.895 256 437.895-256v-511.251l-437.895-256.749zM59.883 226.433l374.269-220.819 374.269 220.819v443.135l-374.269 220.819-374.269-220.819v-443.135z" />
<glyph unicode="&#xe604;" glyph-name="hex-01-solid" horiz-adv-x="867" d="M433.518 960l-433.518-255.626v-512l433.518-256.374 433.518 255.626v512.747l-433.518 255.626zM568.058 213.302h-239.182v67.27h74.745v313.927c-14.949-14.201-33.635-27.655-50.826-39.615s-31.393-23.918-53.816-35.877v88.199c22.423 11.212 35.877 21.676 51.574 33.635 15.696 11.212 32.888 28.403 48.584 35.877h94.178v-396.146h74.745v-67.27z" />
<glyph unicode="&#xe605;" glyph-name="hex-02-outline" horiz-adv-x="876" d="M270.971 305.778c14.971 13.474 34.433 29.942 58.386 50.152 23.953 19.462 47.906 41.17 72.608 63.626 12.725 11.977 25.45 23.205 37.427 35.181s22.456 23.953 31.439 35.93c8.982 11.977 15.719 23.953 20.959 35.181 5.24 11.977 7.485 23.205 6.737 35.181 0 17.216-5.988 31.439-17.216 41.918s-25.45 15.719-42.667 15.719c-12.725 0-23.205-2.246-31.439-6.737s-14.971-11.228-19.462-18.713c-5.24-7.485-8.234-16.468-10.48-26.199s-3.743-20.211-3.743-30.69h-96.561c0.749 30.69 5.24 55.392 14.222 74.854s20.959 34.433 36.678 45.661c14.971 11.228 32.936 18.713 53.895 22.456 20.959 4.491 42.667 5.988 66.62 5.988 20.959 0 40.421-2.994 58.386-8.234s33.684-14.222 46.409-25.45c12.725-11.228 23.205-25.45 30.69-42.667s11.228-36.678 11.228-59.135c0.749-15.719-3.743-32.187-11.228-49.404-8.234-17.216-18.713-33.684-32.187-50.152s-27.696-32.936-44.912-48.655c-16.468-15.719-32.936-31.439-50.152-45.661-16.468-14.222-32.187-27.696-46.409-40.421s-26.199-23.205-35.93-32.936h142.971v59.883h84.585v-126.503h-330.854v89.825zM437.895-64l-437.895 256v512l437.895 256 437.895-256v-511.251l-437.895-256.749zM59.883 226.433l374.269-220.819 374.269 220.819v443.135l-374.269 220.819-374.269-220.819v-443.135z" />
<glyph unicode="&#xe606;" glyph-name="hex-02-solid" horiz-adv-x="875" d="M437.255 960l-437.255-255.626v-512l437.255-256.374 437.255 255.626v512.747l-437.255 255.626zM605.431 211.807h-328.876v90.441c14.949 13.454 33.635 30.645 57.553 50.079 23.918 20.181 47.836 41.109 72.502 64.28 13.454 11.959 25.413 23.918 37.372 35.877s22.423 23.918 31.393 35.877c8.969 11.959 15.696 23.918 20.928 35.877s7.474 23.918 6.727 35.13c0 17.191-5.98 31.393-17.191 41.857s-25.413 15.696-43.352 15.696c-12.707 0-23.171-2.242-31.393-6.727s-14.949-11.212-20.181-18.686c-5.232-7.474-8.222-17.191-10.464-27.655-2.242-9.717-3.737-17.191-3.737-32.14h-96.42c0.747 29.898 5.232 56.806 14.201 76.239s21.676 35.13 36.625 46.342c15.696 11.212 33.635 18.686 54.564 23.171s43.352 6.727 67.27 6.727c20.928 0 41.109-2.99 59.048-8.222 17.939-5.98 33.635-14.201 47.089-25.413s23.918-25.413 31.393-42.604c7.474-17.191 11.212-37.372 11.212-59.796 0.747-15.696-3.737-32.888-11.959-49.331-8.222-17.191-18.686-33.635-32.14-50.826s-28.403-32.888-44.847-49.331c-16.444-15.696-33.635-31.393-50.079-46.342s-32.14-28.403-47.089-41.109c-14.949-12.707-26.908-25.413-35.877-32.888h143.509v59.796h82.219v-126.318z" />
<glyph unicode="&#xe607;" glyph-name="hex-03-outline" horiz-adv-x="876" d="M404.959 492.164c12.725-0.749 24.702-0.749 35.93 0.749s21.708 4.491 30.69 9.731c8.982 5.24 16.468 11.977 21.708 21.708 5.24 8.982 8.234 20.959 8.234 35.93 0 21.708-5.988 38.175-17.216 47.906-11.977 9.731-27.696 14.971-48.655 14.971-21.708 0-37.427-7.485-47.158-21.708s-14.971-31.439-14.971-51.649h-97.31c-0.749 24.702 3.743 44.912 12.725 62.877 8.982 17.216 20.959 32.187 36.678 43.415s32.936 20.211 53.146 25.45c20.211 5.24 41.17 8.234 62.129 8.234s41.17-2.246 60.632-6.737c19.462-4.491 35.93-11.977 50.152-22.456 14.222-9.731 25.45-23.205 33.684-39.673s12.725-35.93 12.725-59.883c0-29.942-8.234-53.895-25.45-71.86s-40.421-28.444-70.363-31.439v-1.497c29.193-2.246 53.146-12.725 71.86-32.187s28.444-44.164 28.444-74.854c0-23.205-4.491-43.415-12.725-61.38-8.234-17.216-20.211-31.439-35.181-43.415-14.971-11.228-32.936-20.211-53.895-25.45-20.959-5.988-43.415-8.234-68.117-8.234-21.708 0-42.667 2.246-62.129 6.737s-36.678 11.977-50.901 23.205c-14.971 11.228-26.199 25.45-35.181 43.415s-12.725 40.421-12.725 67.368h96.561c-0.749-22.456 4.491-40.421 14.971-53.895s27.696-20.211 50.901-20.211c21.708 0 39.673 5.988 52.398 18.713s19.462 29.942 19.462 51.649c0 17.216-2.994 30.69-8.234 40.421s-12.725 17.216-21.708 22.456c-8.982 5.24-20.211 8.234-32.187 8.982-12.725 1.497-25.45 1.497-38.924 1.497v71.111zM437.895-64l-437.895 256v512l437.895 256 437.895-256v-511.251l-437.895-256.749zM59.883 226.433l374.269-220.819 374.269 220.819v443.135l-374.269 220.819-374.269-220.819v-443.135z" />
<glyph unicode="&#xe608;" glyph-name="hex-03-solid" horiz-adv-x="875" d="M437.255 960l-437.255-255.626v-512l437.255-256.374 437.255 255.626v512.747l-437.255 255.626zM597.209 282.815c-8.222-17.191-20.181-32.14-35.877-43.352s-33.635-20.181-54.564-26.161c-20.928-5.98-44.099-8.222-68.765-8.222-22.423 0-43.352 2.242-62.785 6.727s-36.625 11.959-51.574 23.171c-14.949 11.212-26.908 24.666-35.13 43.352-8.969 17.939-13.454 44.847-13.454 67.27h97.915c-0.747-22.423 4.485-39.615 14.949-53.816 10.464-13.454 27.655-20.181 51.574-20.181 22.423 0 39.615 6.727 53.069 18.686 13.454 12.707 20.181 29.898 20.181 52.321 0 17.191-2.99 31.393-8.222 41.109s-12.707 17.191-21.676 22.423c-8.969 5.232-19.434 8.222-32.14 8.969-12.707 1.495-23.918 1.495-38.867 1.495v71.007c14.949-0.747 24.666-0.747 35.877 0.747s21.676 4.485 30.645 9.717c8.969 5.232 16.444 12.707 21.676 21.676s8.222 21.676 8.222 36.625c0 22.423-5.98 38.12-17.939 48.584s-28.403 14.949-48.584 14.949c-22.423 0-38.12-7.474-47.836-21.676s-14.949-29.898-14.949-52.321h-98.663c-0.747 22.423 3.737 45.594 12.707 63.533s20.928 32.14 36.625 44.099c15.696 11.212 33.635 20.181 53.816 25.413s41.109 8.222 62.785 8.222c20.928 0 41.857-2.242 61.291-6.727s36.625-11.959 50.826-22.423c14.201-10.464 26.161-23.171 34.382-40.362 8.222-16.444 12.707-36.625 12.707-60.543 0-29.898-8.969-54.564-26.161-72.502s-41.857-28.403-71.755-31.393v-1.495c29.898-2.242 53.816-13.454 73.25-32.888 18.686-19.434 28.403-44.847 28.403-75.492 0.747-22.423-2.99-43.352-11.959-60.543z" />
<glyph unicode="&#xe609;" glyph-name="hex-04-outline" horiz-adv-x="876" d="M403.462 287.064h62.877v46.409h-208.842v86.83l190.129 259.743h112.281v-279.205h56.14v-66.62h-56.14v-46.409h52.398v-66.62h-208.842v65.871zM466.339 587.228h-1.497l-135.485-187.135h137.731v187.135zM437.895-64l-437.895 256v512l437.895 256 437.895-256v-511.251l-437.895-256.749zM59.883 226.433l374.269-220.819 374.269 220.819v443.135l-374.269 220.819-374.269-220.819v-443.135z" />
<glyph unicode="&#xe60a;" glyph-name="hex-04-solid" horiz-adv-x="867" d="M322.149 396.426h141.267v186.861h-3.737zM433.518 960l-433.518-255.626v-512l433.518-256.374 433.518 255.626v512.747l-433.518 255.626zM612.905 329.156h-59.796v-44.847h52.321v-67.27h-209.285v67.27h67.27v44.847h-216.759v87.451l195.083 263.848h111.369v-284.029h59.796v-67.27z" />
<glyph unicode="&#xe60b;" glyph-name="hex-05-outline" horiz-adv-x="876" d="M576.374 617.918h-205.099v-125.006h1.497c11.228 14.971 24.702 25.45 40.421 32.187s33.684 9.731 52.398 9.731c22.456 0 41.918-4.491 59.135-12.725 16.468-8.982 30.69-20.211 41.17-35.181s18.713-31.439 23.953-50.901c5.24-18.713 8.234-38.924 8.234-59.883 0-19.462-2.994-38.175-8.234-57.637s-14.222-36.678-27.696-51.649c-12.725-14.971-29.942-27.696-52.398-37.427-21.708-9.731-50.152-14.222-83.836-14.222-20.211 0-39.673 2.246-58.386 7.485s-35.181 12.725-49.404 23.205c-14.222 10.48-25.45 23.953-33.684 40.421s-12.725 35.93-11.977 57.637h96.561c1.497-20.959 6.737-35.93 17.216-46.409 9.731-10.48 25.45-15.719 46.409-15.719 12.725 0 23.205 2.246 32.187 7.485s15.719 11.977 20.959 20.211c5.24 8.234 8.982 17.965 11.228 29.193s3.743 22.456 3.743 34.433c0 11.977-1.497 23.205-3.743 34.433s-5.988 20.959-11.228 29.942c-5.24 8.982-11.977 15.719-20.959 21.708-8.982 5.24-20.211 8.234-32.936 8.234-17.965 0-32.187-5.988-44.164-17.965s-17.216-26.947-17.216-44.912h-92.070v279.953h297.918v-66.62zM437.895-64l-437.895 256v512l437.895 256 437.895-256v-511.251l-437.895-256.749zM59.883 226.433l374.269-220.819 374.269 220.819v443.135l-374.269 220.819-374.269-220.819v-443.135z" />
<glyph unicode="&#xe60c;" glyph-name="hex-05-solid" horiz-adv-x="867" d="M433.518 960l-433.518-255.626v-512l433.518-256.374 433.518 255.626v512.747l-433.518 255.626zM588.239 311.218c-5.232-19.434-14.949-36.625-27.655-52.321s-30.645-27.655-53.069-37.372c-22.423-9.717-50.079-14.201-84.461-14.201-20.181 0-39.615 2.242-59.048 7.474-18.686 5.232-35.13 13.454-49.331 23.918s-25.413 23.171-34.382 39.615c-7.474 16.444-11.212 35.13-11.212 57.553h97.915c1.495-22.423 6.727-35.877 17.191-46.342 9.717-10.464 25.413-15.696 47.089-15.696 12.707 0 23.171 2.99 32.14 8.222s15.696 11.959 20.928 20.928c5.232 8.222 8.969 18.686 11.212 29.15 2.242 11.212 3.737 23.171 3.737 35.13s-1.495 23.171-3.737 35.13c-2.242 11.212-5.98 21.676-11.212 30.645s-11.959 16.444-20.928 21.676c-8.969 5.232-20.181 8.222-33.635 8.222-17.939 0-32.888-4.485-44.847-16.444s-17.939-28.403-17.939-43.352h-97.915v276.555h306.453v-67.27h-209.285v-127.066h2.242c11.212 14.949 25.413 26.908 41.109 33.635s33.635 10.464 53.069 10.464c22.423 0 42.604-4.485 59.796-12.707 17.191-8.969 30.645-20.181 41.857-35.13s18.686-32.14 24.666-50.826 8.222-39.615 8.222-60.543c-0.747-20.181-2.99-39.615-8.969-59.048z" />
<glyph unicode="&#xe60d;" glyph-name="hex-06-outline" horiz-adv-x="876" d="M502.269 567.018c-0.749 18.713-5.24 33.684-14.222 43.415s-22.456 14.971-39.673 14.971c-17.965 0-32.187-5.24-42.667-16.468-10.48-10.48-18.713-23.953-23.953-39.673-5.988-15.719-9.731-32.187-11.228-49.404-2.246-17.216-2.994-32.936-4.491-45.661h1.497c13.474 17.965 28.444 30.69 44.164 38.175 15.719 6.737 35.93 10.48 60.632 10.48 21.708 0 40.421-4.491 56.889-13.474s29.942-20.959 41.17-35.181c11.228-14.971 19.462-31.439 25.45-50.152s8.982-38.175 8.982-58.386c0-27.696-3.743-50.901-11.977-71.111-8.234-19.462-19.462-35.93-34.433-48.655s-32.187-21.708-53.146-27.696c-20.959-5.988-44.164-8.982-69.614-8.982-34.433 0-62.877 5.988-84.585 17.216-21.708 11.977-38.175 27.696-50.901 47.906-11.977 20.211-20.211 44.164-24.702 71.111s-5.988 56.14-5.988 87.579c0 32.187 2.246 63.626 7.485 94.316s14.222 57.637 27.696 81.591c13.474 23.953 32.187 42.667 56.14 56.889s53.895 21.708 91.322 21.708c41.918 0 76.351-9.731 102.55-28.444 26.199-19.462 41.17-50.152 44.164-92.819h-96.561zM511.251 371.649c0 11.977-1.497 23.205-3.743 33.684s-6.737 20.211-11.977 28.444c-5.988 8.234-12.725 14.222-22.456 19.462-8.982 5.24-20.211 7.485-33.684 7.485s-24.702-2.994-33.684-8.234c-8.982-5.24-16.468-12.725-22.456-21.708s-10.48-18.713-12.725-29.193c-2.246-10.48-3.743-21.708-3.743-32.187 0-11.977 1.497-23.205 3.743-34.433s5.988-21.708 11.977-30.69c5.24-8.982 13.474-16.468 22.456-21.708 9.731-5.24 21.708-8.234 36.678-8.234 12.725 0 23.953 2.994 32.936 8.982s16.468 14.222 21.708 23.205c5.988 9.731 9.731 20.211 11.977 31.439 1.497 11.228 2.994 22.456 2.994 33.684zM437.895-64l-437.895 256v512l437.895 256 437.895-256v-511.251l-437.895-256.749zM59.883 226.433l374.269-220.819 374.269 220.819v443.135l-374.269 220.819-374.269-220.819v-443.135z" />
<glyph unicode="&#xe60e;" glyph-name="hex-06-solid" horiz-adv-x="867" d="M488.082 430.061c-5.98 8.222-13.454 14.201-22.423 19.434s-20.181 7.474-33.635 7.474c-13.454 0-25.413-2.99-34.382-8.222s-17.191-12.707-23.171-21.676c-5.98-8.969-10.464-18.686-13.454-29.898-2.242-11.212-3.737-21.676-3.737-32.888 0-11.959 1.495-23.171 3.737-35.13 2.242-11.212 6.727-21.676 11.959-30.645 5.98-8.969 13.454-16.444 23.171-21.676 9.717-5.98 22.423-8.222 37.372-8.222 13.454 0 24.666 2.99 33.635 8.969s16.444 14.201 21.676 23.918c5.98 9.717 9.717 20.181 11.959 32.14 2.242 11.212 3.737 23.171 3.737 34.382 0 11.959-1.495 23.171-3.737 34.382-2.99 10.464-7.474 19.434-12.707 27.655zM433.518 960l-433.518-255.626v-512l433.518-256.374 433.518 255.626v512.747l-433.518 255.626zM585.997 290.289c-8.222-20.181-20.181-35.877-34.382-48.584-14.949-12.707-32.888-22.423-53.816-27.655-20.928-5.98-44.847-8.969-70.26-8.969-35.13 0-63.533 5.98-85.209 17.939s-38.867 27.655-50.826 48.584c-11.959 20.928-20.928 44.847-24.666 71.755-4.485 27.655-6.727 56.806-6.727 88.946 0 32.888 2.242 64.28 7.474 94.926s14.949 58.301 28.403 82.219c13.454 23.918 32.14 43.352 56.058 57.553s54.564 21.676 92.683 21.676c42.604 0 76.987-8.969 103.147-28.403s41.109-48.584 44.847-93.431h-97.915c-0.747 14.949-5.232 32.888-14.201 43.352s-22.423 14.949-40.362 14.949c-17.939 0-32.14-5.232-42.604-16.444s-18.686-23.918-24.666-39.615c-5.98-15.696-9.717-33.635-11.212-51.574-2.242-17.939-2.99-32.888-4.485-47.836h1.495c13.454 22.423 28.403 32.888 44.847 39.615 15.696 6.727 36.625 11.212 61.291 11.212 21.676 0 41.109-4.485 57.553-13.454s30.645-20.928 41.857-35.877c11.212-14.949 20.181-31.393 26.161-50.826s8.969-38.12 8.969-59.048c-0.747-26.908-5.232-50.826-13.454-71.007z" />
<glyph unicode="&#xe60f;" glyph-name="hex-07-outline" horiz-adv-x="876" d="M601.076 591.719c-17.216-32.187-32.936-63.626-47.906-94.316-14.971-31.439-29.193-62.129-42.667-93.567s-26.199-62.877-38.924-95.064c-12.725-32.187-24.702-65.123-35.93-98.807h-101.801c26.947 66.62 54.643 133.24 84.585 198.363 29.193 65.871 62.129 130.246 96.561 193.871h-158.69v-80.842h-83.836v147.462h329.357v-77.099zM437.895-64l-437.895 256v512l437.895 256 437.895-256v-511.251l-437.895-256.749zM59.883 226.433l374.269-220.819 374.269 220.819v443.135l-374.269 220.819-374.269-220.819v-443.135z" />
<glyph unicode="&#xe610;" glyph-name="hex-07-solid" horiz-adv-x="867" d="M433.518 960l-433.518-255.626v-512l433.518-256.374 433.518 255.626v512.747l-433.518 255.626zM597.956 600.479c-22.423-32.14-33.635-64.28-49.331-95.673-14.949-31.393-29.898-62.785-43.352-94.178s-26.908-63.533-38.867-96.42c-12.707-32.888-24.666-62.785-36.625-100.158h-103.895c26.908 67.27 55.311 134.54 85.209 200.315 29.898 66.523 62.038 136.035 97.915 195.831h-157.711v-82.219h-89.693v149.489h336.35v-76.987z" />
<glyph unicode="&#xe611;" glyph-name="hex-08-outline" horiz-adv-x="876" d="M281.45 555.041c0 23.205 3.743 42.667 11.977 59.883s19.462 30.69 33.684 41.17c14.222 10.48 30.69 18.713 49.404 23.953s38.924 7.485 60.632 7.485c21.708 0 41.918-2.246 60.632-7.485s35.181-12.725 49.404-23.953c14.222-10.48 25.45-24.702 33.684-41.17s11.977-36.678 11.977-59.883c0-29.193-8.234-52.398-24.702-67.368-16.468-15.719-38.175-26.199-65.871-31.439v-0.749c29.193-5.24 53.146-16.468 71.111-34.433s26.947-42.667 26.947-73.357c0-25.45-3.743-47.158-11.977-65.123-8.234-17.216-19.462-32.187-33.684-42.667-14.222-11.228-32.187-18.713-51.649-23.205-20.211-4.491-41.918-6.737-65.871-6.737-24.702 0-46.409 2.246-67.368 5.988s-37.427 11.228-52.398 22.456c-14.222 10.48-25.45 24.702-33.684 42.667s-11.977 40.421-11.977 67.368c0 14.222 2.246 27.696 7.485 39.673 5.24 12.725 11.977 23.953 20.959 33.684s18.713 17.216 30.69 23.205c11.977 5.988 24.702 9.731 38.175 11.228v1.497c-27.696 5.24-49.404 15.719-65.123 31.439-14.222 14.971-22.456 36.678-22.456 65.871zM366.035 349.193c0-23.953 5.988-42.667 17.965-56.14s29.942-20.211 53.895-20.211c23.205 0 40.421 7.485 52.398 21.708s17.965 32.936 17.965 55.392c0 22.456-5.988 40.421-17.216 54.643-11.977 13.474-29.193 20.959-52.398 20.959-23.953 0-41.918-6.737-53.895-20.211-12.725-14.971-18.713-33.684-18.713-56.14zM369.778 555.041c0-45.661 22.456-68.117 68.117-68.117s68.117 22.456 68.117 68.117c0 46.409-22.456 69.614-68.117 69.614s-68.117-23.205-68.117-69.614zM437.895-64l-437.895 256v512l437.895 256 437.895-256v-511.251l-437.895-256.749zM59.883 226.433l374.269-220.819 374.269 220.819v443.135l-374.269 220.819-374.269-220.819v-443.135z" />
<glyph unicode="&#xe612;" glyph-name="hex-08-solid" horiz-adv-x="867" d="M429.781 421.839c-23.918 0-41.857-6.727-54.564-20.928-11.959-13.454-17.939-32.14-17.939-55.311 0-23.918 5.98-43.352 17.939-56.806s29.898-20.181 54.564-20.181c23.171 0 41.109 7.474 53.069 21.676s17.939 32.888 17.939 55.311-5.98 41.109-17.939 55.311c-11.959 13.454-29.15 20.928-53.069 20.928zM429.781 485.372c45.594 0 68.765 23.171 68.765 68.765 0 47.089-23.171 70.26-68.765 70.26s-68.765-23.171-68.765-70.26c0-45.594 23.171-68.765 68.765-68.765zM433.518 960l-433.518-255.626v-512l433.518-256.374 433.518 255.626v512.747l-433.518 255.626zM583.007 279.077c-8.222-17.939-19.434-32.14-34.382-43.352s-32.14-18.686-52.321-23.918c-20.181-4.485-42.604-6.727-66.523-6.727-24.666 0-47.089 2.242-68.018 6.727s-38.12 11.959-53.069 22.423c-14.949 10.464-26.161 24.666-34.382 42.604s-11.959 40.362-11.959 68.018c0 14.201 2.242 27.655 7.474 40.362s11.959 23.918 20.928 33.635c8.969 9.717 17.939 17.939 29.898 23.918s29.898 9.717 37.372 11.212v1.495c-22.423 5.232-48.584 15.696-64.28 31.393s-23.171 38.12-23.171 68.018c0 23.171 4.485 43.352 12.707 60.543s19.434 30.645 33.635 41.857c14.201 11.212 30.645 18.686 50.079 23.918s39.615 7.474 61.291 7.474c21.676 0 41.857-2.242 61.291-7.474s35.877-13.454 50.079-23.918c14.201-11.212 25.413-24.666 33.635-41.857s12.707-37.372 12.707-60.543c0-29.898-9.717-52.321-26.161-68.765-14.949-16.444-36.625-26.908-66.523-32.14v-0.747c29.898-5.232 55.311-16.444 73.25-34.382s27.655-42.604 27.655-74.745c0-25.413-2.99-47.836-11.212-65.028z" />
<glyph unicode="&#xe613;" glyph-name="hex-09-outline" horiz-adv-x="876" d="M371.275 330.48c0.749-18.713 5.24-32.936 14.222-43.415 8.982-9.731 22.456-14.971 39.673-14.971 17.965 0 32.187 5.24 42.667 16.468 10.48 10.48 18.713 23.953 23.953 39.673 5.988 15.719 9.731 32.187 11.228 49.404s2.994 32.936 4.491 46.409h-1.497c-13.474-17.965-28.444-30.69-44.164-38.175-15.719-6.737-35.93-10.48-60.632-10.48-21.708 0-40.421 4.491-56.889 13.474s-29.942 20.959-41.17 35.181c-11.228 14.971-19.462 31.439-25.45 50.152s-8.982 38.175-8.982 58.386c0 26.947 3.743 50.901 11.977 70.363s19.462 35.93 34.433 48.655c14.971 12.725 32.187 21.708 53.146 28.444 20.959 5.988 44.164 8.982 69.614 8.982 34.433 0 62.877-5.988 84.585-17.216 21.708-11.977 38.175-27.696 50.901-47.906 11.977-20.211 20.211-44.164 24.702-71.111s5.988-56.14 5.988-87.579c0-32.187-2.246-63.626-7.485-94.316-5.24-32.187-14.222-59.883-27.696-83.836s-32.187-42.667-56.14-56.889c-23.953-14.222-54.643-21.708-91.322-21.708-41.918 0-76.351 9.731-102.55 28.444s-41.17 50.152-44.164 92.819h96.561zM362.292 525.848c0-11.977 1.497-23.205 3.743-33.684s6.737-20.211 11.977-28.444c5.24-8.234 12.725-14.222 22.456-19.462 8.982-5.24 20.211-7.485 33.684-7.485 12.725 0 24.702 2.994 33.684 8.234 9.731 5.24 17.216 12.725 23.205 21.708s10.48 18.713 12.725 29.193c2.246 10.48 3.743 21.708 3.743 32.187 0 11.977-1.497 23.205-3.743 34.433s-5.988 21.708-11.977 30.69c-5.24 8.982-13.474 16.468-22.456 21.708-9.731 5.24-21.708 8.234-36.678 8.234-13.474 0-23.953-2.994-32.936-8.982s-16.468-14.222-21.708-23.205c-5.988-9.731-9.731-20.211-11.977-31.439s-3.743-22.456-3.743-33.684zM437.895-64l-437.895 256v512l437.895 256 437.895-256v-511.251l-437.895-256.749zM59.883 226.433l374.269-220.819 374.269 220.819v443.135l-374.269 220.819-374.269-220.819v-443.135z" />
<glyph unicode="&#xe614;" glyph-name="hex-09-solid" horiz-adv-x="867" d="M485.092 593.752c-5.98 8.969-13.454 16.444-23.171 21.676-9.717 5.98-22.423 8.222-37.372 8.222-13.454 0-24.666-2.99-33.635-8.969s-16.444-14.201-21.676-23.918c-5.98-9.717-9.717-20.181-11.959-32.14-2.242-11.212-3.737-23.171-3.737-34.382 0-11.959 1.495-23.171 3.737-34.382s6.727-20.181 12.707-28.403c5.98-8.222 13.454-14.201 22.423-19.434s20.181-7.474 33.635-7.474c13.454 0 24.666 2.99 34.382 8.222s17.191 12.707 23.171 21.676c5.98 8.969 10.464 18.686 13.454 29.898 2.242 11.212 3.737 21.676 3.737 32.888 0 11.959-1.495 23.171-3.737 35.13-2.242 12.707-5.98 22.423-11.959 31.393zM433.518 960l-433.518-255.626v-512l433.518-256.374 433.518 255.626v512.747l-433.518 255.626zM590.482 366.528c-5.232-30.645-14.949-58.301-28.403-82.219s-32.888-43.352-56.806-57.553c-23.918-14.201-54.564-21.676-91.936-21.676-42.604 0-76.987 7.474-103.147 26.908s-41.109 54.564-44.847 91.936h97.915c0.747-14.949 5.232-31.393 14.201-41.857s22.423-14.201 40.362-14.201c17.939 0 32.14 5.98 42.604 16.444 10.464 11.212 18.686 24.666 24.666 39.615 5.98 15.696 9.717 32.14 11.212 50.079 2.242 17.191 2.99 32.14 4.485 47.089h-1.495c-13.454-14.949-28.403-31.393-44.847-38.12s-36.625-10.464-61.291-10.464c-21.676 0-41.109 4.485-57.553 13.454s-30.645 20.928-41.857 35.877-20.181 32.14-26.161 50.826c-5.98 18.686-8.969 38.867-8.969 59.048 0 27.655 4.485 50.826 12.707 71.007s20.181 35.877 34.382 48.584c14.949 12.707 32.888 22.423 53.816 28.403s44.847 8.969 70.26 8.969c35.13 0 63.533-5.98 85.209-17.939s38.867-27.655 50.826-48.584c11.959-20.928 20.181-44.847 24.666-71.755 4.485-27.655 6.727-56.806 6.727-88.946 1.495-32.888-1.495-64.28-6.727-94.926z" />
<glyph unicode="&#xe615;" glyph-name="hex-123-outline" horiz-adv-x="877" d="M440.035-64l-444.533 254.876-1.499 512 443.034 257.124 444.533-254.876 1.499-512-443.034-257.124zM53.224 223.859l386.811-221.892 385.312 224.141-1.499 446.032-386.811 221.142-385.312-223.391 1.499-446.032zM278.864 575.438v-257.124h-51.725v205.4h-50.975v51.725zM394.307 409.769v-39.731h103.449v-51.725h-154.425v116.943l102.7 48.726v39.731h-102.7v51.725h154.425v-117.693zM703.157 575.438v-257.124h-154.425v51.725h102.7v50.975h-102.7v51.725h102.7v50.975h-102.7v51.725z" />
<glyph unicode="&#xe616;" glyph-name="hex-123-solid" horiz-adv-x="877" d="M438.536 960l-438.536-256.375v-512l438.536-256.375 438.536 256.375v512l-438.536 256.375zM277.365 315.315h-52.474v202.401h-52.474v52.474h104.949v-254.876zM494.758 455.496l-104.949-47.977v-39.731h104.949v-52.474h-149.927v117.693l97.452 47.977v36.732h-97.452v52.474h149.927v-114.694zM704.656 315.315h-157.423v52.474h104.949v52.474h-104.949v52.474h104.949v44.978h-104.949v52.474h157.423v-254.876z" />
<glyph unicode="&#xe617;" glyph-name="hex-about-outline" horiz-adv-x="874" d="M437.146-64l-437.146 256v512l437.146 256 437.146-256v-511.251l-437.146-256.749zM59.883 226.433l377.263-220.819 377.263 220.819v443.135l-377.263 220.819-377.263-220.819v-443.135zM468.585 680.047c28.444 0 42.667-19.462 42.667-41.918 0-27.696-24.702-53.146-56.889-53.146-26.947 0-42.667 15.719-41.918 41.918 0 22.456 18.713 53.146 56.14 53.146v0zM381.006 255.626c-22.456 0-38.924 13.474-23.205 74.854l25.45 107.789c4.491 17.216 5.24 23.953 0 23.953-6.737 0-35.93-11.977-53.146-23.953l-11.228 18.713c54.643 46.409 117.52 73.357 144.468 73.357 22.456 0 26.199-26.947 14.971-68.865l-29.193-112.281c-5.24-20.211-2.994-26.947 2.246-26.947 6.737 0 28.444 8.234 50.152 25.45l12.725-17.216c-52.398-53.895-110.784-74.854-133.24-74.854v0z" />
<glyph unicode="&#xe618;" glyph-name="hex-about-solid" horiz-adv-x="874" d="M434.901 960l-437.895-256v-511.251l437.895-256 437.895 256v511.251l-437.895 256zM468.585 680.047v0c29.942 0 42.667-19.462 42.667-41.17 0-27.696-24.702-53.146-56.889-53.146-26.947 0-42.667 15.719-41.918 41.918 0 21.708 18.713 52.398 56.14 52.398zM381.006 255.626v0c-22.456 0-38.924 13.474-23.205 74.854l25.45 107.789c4.491 17.216 5.24 23.953 0 23.953-6.737 0-35.93-11.977-53.146-23.953l-11.228 18.713c54.643 46.409 117.52 73.357 144.468 73.357 22.456 0 26.199-26.947 14.971-68.865l-29.193-112.281c-5.24-20.211-2.994-26.947 2.246-26.947 6.737 0 28.444 8.234 50.152 25.45l12.725-17.216c-52.398-53.895-110.784-74.854-133.24-74.854z" />
<glyph unicode="&#xe619;" glyph-name="hex-clinician-outline" horiz-adv-x="877" d="M438.536-63.25l-438.536 256.375v512l438.536 255.625 438.536-255.625v-512l-438.536-256.375zM59.971 227.608l378.565-221.142 378.565 221.142v442.284l-378.565 221.142-378.565-220.392v-443.034zM630.442 500.474c0 33.734-27.736 61.47-61.47 61.47s-61.47-27.736-61.47-61.47c0-29.236 20.99-53.974 47.977-59.971 0-0.75 0-2.249 0-2.999v-119.941c0-48.726-39.731-88.457-88.457-88.457s-88.457 39.731-88.457 88.457v17.242c49.476 6.747 101.95 47.977 101.95 83.959v148.428c0 28.486-17.242 53.224-41.98 63.719-3.748 11.994-14.243 20.24-27.736 20.24-15.742 0-28.486-12.744-28.486-28.486s12.744-28.486 28.486-28.486c8.246 0 15.742 3.748 20.99 8.996 12.744-7.496 20.99-20.24 20.99-35.982v-148.428c0-19.49-46.477-56.972-87.707-56.972s-87.707 37.482-87.707 56.972v148.428c0 14.993 8.246 28.486 20.99 35.982 5.247-5.247 12.744-8.996 20.99-8.996 15.742 0 28.486 12.744 28.486 28.486s-12.744 28.486-28.486 28.486c-12.744 0-23.988-8.996-27.736-20.99-24.738-10.495-41.98-35.233-41.98-63.719v-148.428c0-35.233 52.474-76.463 101.95-83.209v-17.242c0-63.719 51.725-116.193 116.193-116.193s116.193 51.725 116.193 116.193v119.941c0 1.499 0 2.249-0.75 2.999 26.987 6.747 47.227 30.735 47.227 59.971zM569.722 466.741c-18.741 0-33.734 14.993-33.734 33.734s14.993 33.734 33.734 33.734 33.734-14.993 33.734-33.734c-0.75-18.741-15.742-33.734-33.734-33.734z" />
<glyph unicode="&#xe61a;" glyph-name="hex-clinician-solid" horiz-adv-x="877" d="M438.536 960.75l-438.536-255.625v-512l438.536-256.375 438.536 256.375v512l-438.536 255.625zM583.965 440.504c0-0.75 0.75-2.249 0.75-2.999v-119.941c0-63.719-52.474-116.193-116.193-116.193s-116.193 52.474-116.193 116.193v17.242c-52.474 6.747-104.949 47.977-104.949 83.209v149.177c0 28.486 18.741 53.224 43.479 63.719 3.748 11.994 14.993 20.99 28.486 20.99 15.742 0 29.236-12.744 29.236-28.486s-12.744-28.486-28.486-28.486c-8.246 0-15.742 3.748-20.99 8.996-11.994-7.496-20.99-20.24-20.99-35.982v-148.428c0-19.49 48.726-56.972 89.956-56.972s89.956 37.482 89.956 56.972v147.678c0 15.742-9.745 28.486-22.489 35.982-5.247-5.247-13.493-8.996-21.739-8.996-15.742 0-29.236 12.744-29.236 28.486s12.744 28.486 28.486 28.486c12.744 0 22.489-8.996 26.237-20.24 24.738-10.495 41.23-35.233 41.23-63.719v-148.428c0-35.233-52.474-77.212-97.452-83.959v-17.242c0-48.726 37.482-88.457 86.208-88.457 47.977 0 85.458 39.731 85.458 88.457v119.941c0 0.75 0.75 2.249 0.75 2.999-27.736 5.997-47.977 30.735-47.977 59.971 0 33.734 27.736 61.47 61.47 61.47s61.47-27.736 61.47-61.47c0.75-29.236-19.49-53.224-46.477-59.971zM569.722 534.208c-18.741 0-33.734-14.993-33.734-33.734s14.993-33.734 33.734-33.734 33.734 14.993 33.734 33.734c-0.75 17.991-15.742 33.734-33.734 33.734z" />
<glyph unicode="&#xe61b;" glyph-name="hex-clock-outline" horiz-adv-x="877" d="M438.536-64l-438.536 256.375v511.25l438.536 256.375 438.536-256.375v-512l-438.536-255.625zM59.971 226.858l378.565-221.142 378.565 221.142v442.284l-378.565 221.142-378.565-221.142v-442.284zM445.283 600.176c-98.202 0-177.663-79.461-177.663-177.663s79.461-177.663 177.663-177.663 177.663 79.461 177.663 177.663-79.461 177.663-177.663 177.663zM445.283 279.332c-78.712 0-143.18 63.719-143.18 143.18 0 78.712 63.719 143.18 143.18 143.18s143.18-63.719 143.18-143.18c0-78.712-63.719-143.18-143.18-143.18zM613.201 537.206c5.997 11.245 9.745 23.988 9.745 37.482 0 41.98-34.483 76.463-76.463 76.463-24.738 0-46.477-11.245-59.971-29.236 52.474-11.245 97.452-41.98 126.688-84.709v0zM404.053 621.165c-14.243 17.991-35.982 29.236-59.971 29.236-41.98 0-76.463-34.483-76.463-76.463 0-13.493 3.748-26.987 9.745-37.482 29.236 43.479 74.214 74.214 126.688 84.709v0zM419.795 524.463h25.488v-126.688h-25.488v126.688zM445.283 422.512h76.463v-25.488h-76.463v25.488z" />
<glyph unicode="&#xe61c;" glyph-name="hex-clock-solid" horiz-adv-x="870" d="M440.785 565.693c-78.712 0-143.18-63.719-143.18-143.18 0-78.712 63.719-143.18 143.18-143.18 78.712 0 143.18 63.719 143.18 143.18 0 78.712-64.469 143.18-143.18 143.18zM517.247 396.275h-104.949v127.438h29.985v-104.949h74.963v-22.489zM434.788 960l-434.788-256.375v-512l434.788-256.375 434.788 256.375v512l-434.788 256.375zM339.584 651.151c24.738 0 46.477-11.245 59.971-29.236v0c-52.474-10.495-97.452-41.98-126.688-84.709-5.997 11.245-9.745 23.988-9.745 37.482 0 41.98 34.483 76.463 76.463 76.463zM440.785 244.849c-98.202 0-177.663 79.461-177.663 177.663s79.461 177.663 177.663 177.663 177.663-79.461 177.663-177.663-79.461-177.663-177.663-177.663zM608.703 537.206c0 0 0 0 0 0v0c0 0 0 0 0 0-29.236 42.729-74.214 73.464-126.688 84.709 14.243 17.991 35.982 29.236 59.971 29.236 41.98 0 76.463-34.483 76.463-76.463 0-13.493-3.748-26.237-9.745-37.482z" />
<glyph unicode="&#xe61d;" glyph-name="hex-close-outline" horiz-adv-x="876" d="M437.895-64l-437.895 256v512l437.895 256 437.895-256v-511.251l-437.895-256.749zM59.883 226.433l374.269-220.819 374.269 220.819v443.135l-374.269 220.819-374.269-220.819v-443.135zM607.064 349.942v0l-101.801 102.55 102.55 102.55c0.749 0.749 2.246 2.246 2.246 3.743 1.497 3.743 0.749 8.234-2.246 11.228l-48.655 48.655c-2.994 2.994-7.485 3.743-11.228 2.246-1.497-0.749-2.994-1.497-3.743-2.246v0l-102.55-103.298-102.55 102.55c-0.749 0.749-2.246 2.246-3.743 2.246-3.743 1.497-8.234 0.749-11.228-2.246l-48.655-48.655c-2.994-2.994-3.743-7.485-2.246-11.228 0.749-1.497 1.497-2.994 2.246-3.743v0l102.55-102.55-101.801-101.801c-0.749-0.749-2.246-2.246-2.246-3.743-1.497-3.743-0.749-8.234 2.246-11.228l48.655-48.655c2.994-2.994 7.485-3.743 11.228-2.246 1.497 0.749 2.994 1.497 3.743 2.246v0l101.801 102.55 102.55-102.55c0.749-0.749 2.246-2.246 3.743-2.246 3.743-1.497 8.234-0.749 11.228 2.246l48.655 48.655c2.994 2.994 3.743 7.485 2.246 11.228-0.749 1.497-1.497 2.994-2.994 3.743z" />
<glyph unicode="&#xe61e;" glyph-name="hex-close-solid" horiz-adv-x="867" d="M433.518 960l-433.518-255.626v-512l433.518-256.374 433.518 255.626v512.747l-433.518 255.626zM597.209 345.6c0.747-0.747 2.242-2.242 2.242-3.737 1.495-3.737 0.747-8.222-2.242-11.212l-48.584-48.584c-2.99-2.99-7.474-3.737-11.212-2.242-1.495 0.747-2.99 1.495-3.737 2.242l-101.653 103.147-102.4-102.4c-0.747-0.747-2.242-2.242-3.737-2.242-3.737-1.495-8.222-0.747-11.212 2.242l-48.584 48.584c-2.99 2.99-3.737 7.474-2.242 11.212 0.747 1.495 1.495 2.99 2.242 3.737l102.4 102.4-102.4 101.653c-0.747 0.747-2.242 2.242-2.242 3.737-1.495 3.737-0.747 8.222 2.242 11.212l48.584 48.584c2.99 2.99 7.474 3.737 11.212 2.242 1.495-0.747 2.99-1.495 3.737-2.242l102.4-102.4 102.4 102.4c0.747 0.747 2.242 2.242 3.737 2.242 3.737 1.495 8.222 0.747 11.212-2.242l48.584-48.584c2.99-2.99 3.737-7.474 2.242-11.212-0.747-1.495-1.495-2.99-2.242-3.737l-103.147-102.4 102.4-102.4z" />
<glyph unicode="&#xe61f;" glyph-name="hex-computer-outline" horiz-adv-x="877" d="M438.536-64l-438.536 256.375v511.25l438.536 256.375 438.536-256.375v-512l-438.536-255.625zM59.971 226.858l378.565-221.142 378.565 221.142v442.284l-378.565 221.142-378.565-221.142v-442.284zM602.706 614.419h-330.589c-20.24 0-35.982-16.492-35.982-35.982v-203.151c0-20.24 16.492-35.982 35.982-35.982h127.438v-53.974h-88.457c-7.496 0-13.493-5.997-13.493-13.493s5.997-13.493 13.493-13.493h255.625c7.496 0 13.493 5.997 13.493 13.493s-5.997 13.493-13.493 13.493h-89.956v53.974h127.438c20.24 0 35.982 16.492 35.982 35.982v202.401c-0.75 20.24-17.242 36.732-37.482 36.732zM272.117 577.687h331.338v-202.401h-331.338v202.401z" />
<glyph unicode="&#xe620;" glyph-name="hex-computer-solid" horiz-adv-x="877" d="M269.868 580.685h329.839v-202.401h-329.839v202.401zM438.536 960l-438.536-256.375v-512l438.536-256.375 438.536 256.375v512l-438.536 256.375zM637.189 375.286c0-20.24-14.243-34.483-34.483-34.483h-130.436v-52.474h93.704c7.496 0 13.493-7.496 13.493-14.993s-5.997-14.993-13.493-14.993h-254.876c-7.496 0-13.493 7.496-13.493 14.993s5.997 14.993 13.493 14.993h86.208v52.474h-125.189c-20.24 0-39.731 14.243-39.731 34.483v202.401c0 20.24 19.49 32.984 39.731 32.984h331.338c20.24 0 34.483-12.744 34.483-32.984v-202.401z" />
<glyph unicode="&#xe621;" glyph-name="hex-conversation-outline" horiz-adv-x="877" d="M438.536-64l-438.536 256.375v511.25l438.536 256.375 438.536-256.375v-512l-438.536-255.625zM59.971 226.858l378.565-221.142 378.565 221.142v442.284l-378.565 221.142-378.565-221.142v-442.284zM664.925 565.693v-86.958c0-27.736-22.489-50.975-50.975-50.975h-18.741v-76.463l-65.968 76.463h-155.924c-27.736 0-50.975 22.489-50.975 50.975v86.958c0 27.736 22.489 50.975 50.975 50.975h240.633c28.486 0 50.975-23.239 50.975-50.975zM520.246 409.019l26.987-31.485c-5.997-21.739-25.488-37.482-48.726-37.482h-133.435l-65.968-75.713v76.463h-18.741c-27.736 0-50.225 22.489-50.225 50.225v86.958c0 27.736 22.489 50.225 50.225 50.225h23.988v-49.476c0-38.231 30.735-68.966 68.966-68.966h146.928z" />
<glyph unicode="&#xe622;" glyph-name="hex-conversation-solid" horiz-adv-x="877" d="M438.536 960l-438.536-256.375v-512l438.536-256.375 438.536 256.375v512l-438.536 256.375zM499.256 340.802h-134.184l-65.218-75.713v75.713h-19.49c-27.736 0-47.977 22.489-47.977 50.225v86.958c0 27.736 20.24 50.225 47.977 50.225h26.987v-49.476c0-38.231 27.736-70.466 65.968-70.466h146.928l26.987-30.735c-5.247-21.739-24.738-36.732-47.977-36.732zM667.174 478.735c0-27.736-24.738-47.977-53.224-47.977h-21.739v-79.461l-62.969 79.461h-155.924c-27.736 0-50.975 19.49-50.975 47.977v86.958c0 27.736 23.239 52.474 50.975 52.474h240.633c27.736 0 53.224-24.738 53.224-52.474v-86.958z" />
<glyph unicode="&#xe623;" glyph-name="hex-dataKey-outline" horiz-adv-x="877" d="M438.536-64l-438.536 256.375v511.25l438.536 256.375 438.536-256.375v-512l-438.536-255.625zM59.971 226.858l378.565-221.142 378.565 221.142v442.284l-378.565 221.142-378.565-221.142v-442.284zM559.977 298.823c9.745-3.748 20.24-4.498 31.485-4.498 50.975 0 91.455 41.23 91.455 92.205s-41.23 92.205-91.455 92.205c-45.728 0-83.959-33.734-90.706-77.212-0.75-4.498-1.499-8.996-1.499-14.243 0-5.997 0.75-11.245 1.499-16.492l-50.975-52.474-59.971-59.971v-54.723c0-10.495 8.246-20.24 17.991-20.24h19.49v14.993h37.482v37.482h37.482v37.482h34.483l23.239 25.488zM619.198 442.003c14.993 0 27.736-11.994 27.736-27.736 0-14.993-11.994-27.736-27.736-27.736s-27.736 11.994-27.736 27.736c0 14.993 11.994 27.736 27.736 27.736zM477.517 378.284c0 2.999 0 5.997 0 8.996 0 1.499 0 2.999 0 4.498-20.99-6.747-45.728-10.495-72.714-10.495-59.971 0-112.445 18.741-128.187 44.228-2.999 5.247-6.747 2.249-6.747 0s0-37.482 0-37.482c0-36.732 60.72-74.214 133.435-74.214 2.999 0 6.747 0 9.745 0l64.469 64.469zM500.755 400.773c0 0 0 0 0 0-0.75-4.498-1.499-8.996-1.499-14.243 0 0 0 0 0 0s0 0 0 0c0.75 5.247 0.75 9.745 1.499 14.243zM539.736 488.48c0 12.744 0 32.234 0 33.734 0 2.249-2.999 4.498-6.747 0-15.742-22.489-67.467-38.981-127.438-38.981s-113.195 16.492-128.937 38.981c-2.999 4.498-6.747 2.249-6.747 0s0-44.228 0-44.228c0-32.984 62.22-59.971 134.934-59.971 29.985 0 58.471 4.498 80.96 12.744 10.495 24.738 29.985 45.728 53.974 57.722zM404.802 519.215c72.714 0 134.934 23.239 134.934 52.474v23.988c0 26.987-62.22 49.476-134.934 49.476s-134.934-22.489-134.934-49.476v-23.988c0-29.236 62.22-52.474 134.934-52.474z" />
<glyph unicode="&#xe624;" glyph-name="hex-dataKey-solid" horiz-adv-x="877" d="M639.438 414.266c0-15.318-12.418-27.736-27.736-27.736s-27.736 12.418-27.736 27.736c0 15.318 12.418 27.736 27.736 27.736s27.736-12.418 27.736-27.736zM438.536 960l-438.536-256.375v-512l438.536-256.375 438.536 256.375v512l-438.536 256.375zM262.372 595.678c0 26.987 62.22 49.476 134.934 49.476s134.934-22.489 134.934-49.476v-23.988c0-29.236-62.22-52.474-134.934-52.474s-134.934 23.239-134.934 52.474v23.988zM262.372 522.214c0 2.249 3.748 4.498 6.747 0 15.742-22.489 68.217-38.981 128.937-38.981s111.695 16.492 127.438 38.981c2.999 4.498 6.747 2.249 6.747 0 0-1.499 0-20.99 0-33.734-23.988-11.994-43.479-32.984-53.974-58.471-22.489-7.496-50.975-12.744-80.96-12.744-72.714 0-134.934 26.987-134.934 59.971 0 0.75 0 42.729 0 44.978zM262.372 388.029c0 0 0 35.233 0 37.482s2.999 5.247 6.747 0c15.742-25.488 68.217-44.228 128.187-44.228 26.987 0 51.725 3.748 72.714 10.495 0-1.499 0-2.999 0-4.498 0-2.999 0-5.997 0-8.996l-64.469-64.469c-2.999 0-6.747 0-9.745 0-72.714 0-133.435 37.482-133.435 74.214zM674.671 386.53c0-29.985-14.243-56.972-36.732-74.214-14.993-11.245-33.734-17.991-53.974-17.991-11.245 0-20.99 0.75-30.735 4.498l-23.988-25.488h-34.483v-37.482h-37.482v-37.482h-37.482v-14.993h-19.49c-10.495 0-17.991 10.495-17.991 20.24v54.723l111.695 111.695c-0.75 5.247-0.75 11.245-0.75 16.492 0 4.498 1.499 8.996 1.499 14.243 0 0 0 0 0 0h-0.75c6.747 44.978 44.228 77.962 89.956 77.962 41.23 0 74.963-26.987 86.958-64.469 2.999-8.996 3.748-17.991 3.748-27.736 0 0 0 0 0 0s0 0 0 0zM583.965 477.985c41.23 0 75.713-26.987 86.958-63.719-11.245 37.482-46.477 64.469-86.958 63.719-45.728 0-83.959-32.234-90.706-77.212v0c6.747 44.228 44.978 77.212 90.706 77.212zM637.189 312.316c22.489 16.492 37.482 43.479 37.482 74.214 0 0 0 0 0 0 0-30.735-14.993-56.972-37.482-74.214zM493.259 400.773c0 0 0 0 0 0-0.75-4.498-1.499-8.996-1.499-14.243 0 0 0 0 0 0s0 0 0 0c0.75 5.247 0.75 9.745 1.499 14.243z" />
<glyph unicode="&#xe625;" glyph-name="hex-dataLock-outline" horiz-adv-x="877" d="M438.536-68.498l-438.536 256.375v511.25l438.536 256.375 438.536-256.375v-511.25l-438.536-256.375zM59.971 222.36l378.565-221.142 378.565 221.142v442.284l-378.565 221.142-378.565-221.142v-442.284zM615.449 355.795h-15.742v45.728c0 34.483-29.236 62.969-63.719 62.969s-63.719-28.486-63.719-62.969v-45.728h-13.493c-8.996 0-16.492-8.246-16.492-16.492v-110.196c0-8.996 7.496-15.742 16.492-15.742h157.423c8.996 0 14.243 6.747 14.243 15.742v110.196c-0.75 8.246-5.997 16.492-14.993 16.492zM536.738 260.592c-8.996 0-15.742 6.747-15.742 15.742s6.747 15.742 15.742 15.742 15.742-6.747 15.742-15.742c0-8.996-6.747-15.742-15.742-15.742zM569.722 355.795h-67.467v45.728c0 17.242 16.492 31.485 33.734 31.485s33.734-14.243 33.734-31.485v-45.728zM449.78 376.785v15.742c-14.993-3.748-35.982-6.747-56.972-6.747-59.971 0-110.196 18.741-125.939 44.228-2.999 5.247-4.498 2.249-4.498 0 0-2.999 0-37.482 0-37.482 0-36.732 58.471-74.214 131.186-74.214 8.996 0 18.741 0.75 26.237 1.499v18.741c0 19.49 14.993 34.483 29.985 38.231zM393.558 523.713c72.714 0 131.186 23.239 131.186 52.474v23.988c0 27.736-58.471 49.476-131.186 49.476s-131.186-22.489-131.186-49.476v-23.988c0-28.486 58.471-52.474 131.186-52.474zM524.744 486.231c0 10.495 0 38.981 0 40.48 0 2.249-1.499 4.498-4.498 0-15.742-22.489-65.968-38.981-126.688-38.981-59.971 0-110.946 16.492-126.688 38.981-2.999 4.498-4.498 2.249-4.498 0s0-44.228 0-44.228c0-32.984 58.471-59.971 131.186-59.971 22.489 0 44.228 2.999 62.969 7.496 10.495 29.236 38.231 51.725 68.217 56.223z" />
<glyph unicode="&#xe626;" glyph-name="hex-dataLock-solid" horiz-adv-x="877" d="M563.725 283.83c0-8.694-7.048-15.742-15.742-15.742s-15.742 7.048-15.742 15.742c0 8.694 7.048 15.742 15.742 15.742s15.742-7.048 15.742-15.742zM543.485 440.504c-17.242 0-33.734-14.243-33.734-31.485v-48.726h67.467v48.726c0 17.242-16.492 31.485-33.734 31.485zM438.536 960l-438.536-256.375v-512l438.536-256.375 438.536 256.375v512l-438.536 256.375zM269.868 607.672c0 27.736 58.471 49.476 131.186 49.476s131.186-22.489 131.186-49.476v-23.988c0-29.236-58.471-52.474-131.186-52.474s-131.186 23.239-131.186 52.474v23.988zM269.868 534.208c0 2.249 2.999 4.498 5.997 0 15.742-22.489 67.467-38.981 128.187-38.981 59.971 0 110.196 16.492 125.939 38.981 2.999 4.498 2.999 2.249 2.999 0 0-1.499 0-30.735 0-40.48-29.985-4.498-56.972-26.987-67.467-56.223-18.741-4.498-38.981-7.496-61.47-7.496-72.714 0-133.435 26.987-133.435 59.971-0.75 0-0.75 41.98-0.75 44.228zM427.291 346.799v-18.741c-7.496-1.499-17.242-1.499-26.237-1.499-72.714 0-131.186 37.482-131.186 74.214 0 0 0 35.233 0 37.482s2.249 5.247 5.247 0c15.742-25.488 66.717-44.228 126.688-44.228 20.99 0 40.48 2.249 55.473 6.747v-15.742c-14.993-4.498-29.985-19.49-29.985-38.231zM637.189 236.603c0-8.996-1.499-18.741-10.495-18.741h-157.423c-8.996 0-20.24 9.745-20.24 18.741v110.196c0 8.996 11.245 13.493 20.24 13.493h10.495v48.726c0 34.483 29.236 62.969 63.719 62.969s63.719-28.486 63.719-62.969v-48.726h19.49c8.996 0 10.495-5.247 10.495-13.493v-110.196z" />
<glyph unicode="&#xe627;" glyph-name="hex-faq-outline" horiz-adv-x="874" d="M437.146-64l-437.146 256v512l437.146 256 437.146-256v-511.251l-437.146-256.749zM59.883 226.433l377.263-220.819 377.263 220.819v443.135l-377.263 220.819-377.263-220.819v-443.135zM254.503 620.164h91.322v-91.322h-91.322v91.322zM391.485 597.708h227.556v-45.661h-227.556v45.661zM254.503 483.93h91.322v-91.322h-91.322v91.322zM391.485 460.725h227.556v-45.661h-227.556v45.661zM254.503 346.947h91.322v-91.322h-91.322v91.322zM391.485 324.491h227.556v-45.661h-227.556v45.661z" />
<glyph unicode="&#xe628;" glyph-name="hex-faq-solid" horiz-adv-x="874" d="M436.398 960l-437.895-256v-511.251l437.895-256 437.895 256v511.251l-437.895 256zM342.83 252.632h-89.825v97.31h89.825v-97.31zM342.83 394.854h-89.825v89.825h89.825v-89.825zM342.83 529.591h-89.825v89.825h89.825v-89.825zM619.789 275.088h-224.561v52.398h224.561v-52.398zM619.789 417.31h-224.561v44.912h224.561v-44.912zM619.789 552.047h-224.561v44.912h224.561v-44.912z" />
<glyph unicode="&#xe629;" glyph-name="hex-home-outline" horiz-adv-x="877" d="M438.536-64l-438.536 256.375v511.25l438.536 256.375 438.536-256.375v-512l-438.536-255.625zM59.971 226.858l378.565-221.142 378.565 221.142v442.284l-378.565 221.142-378.565-221.142v-442.284zM604.955 448l-150.676 149.927c-8.246 8.246-21.739 8.246-29.985 0l-149.927-147.678c-8.246-8.246-10.495-14.993-4.498-20.24h40.48v-122.19c0-8.996 7.496-15.742 17.242-15.742h72.714v115.444h79.461v-115.444h75.713c8.996 0 17.242 6.747 17.242 15.742v121.441l35.982 0.75c8.246 8.246 4.498 9.745-3.748 17.991z" />
<glyph unicode="&#xe62a;" glyph-name="hex-home-solid" horiz-adv-x="870" d="M434.788 960l-434.788-256.375v-512l434.788-256.375 434.788 256.375v512l-434.788 256.375zM599.707 430.009l-37.482-0.75v-122.19c0-8.996-4.498-16.492-13.493-16.492h-76.463v119.941h-82.46v-119.941h-69.716c-8.996 0-20.24 7.496-20.24 16.492v125.939h-36.732c-5.997 0-3.748 10.495 4.498 18.741l149.927 146.928c8.246 8.246 21.739 8.246 29.985-0.75l149.927-150.676c8.246-7.496 10.495-8.996 2.249-17.242z" />
<glyph unicode="&#xe62b;" glyph-name="hex-learn-outline" horiz-adv-x="874" d="M434.901-64l-437.146 256v512l437.146 256 437.146-256v-512l-437.146-256zM56.889 226.433l377.263-220.819 378.012 220.819v443.135l-377.263 220.819-378.012-220.819v-443.135zM434.901 685.287l-215.579-133.988h429.661l-214.082 133.988zM555.415 524.351l13.474-26.947v-160.936h53.895v160.936l13.474 26.947h-80.842zM447.626 524.351l13.474-26.947v-160.936h53.895v160.936l13.474 26.947h-80.842zM340.585 524.351l13.474-26.947v-160.936h53.895v160.936l13.474 26.947h-80.842zM232.795 524.351l13.474-26.947v-160.936h53.895v160.936l13.474 26.947h-80.842zM232.795 309.52l-13.474-53.895h429.661l-12.725 53.895h-403.462zM461.099 604.444c0-14.971-11.977-26.947-26.947-26.947s-26.947 11.977-26.947 26.947c0 14.971 11.977 26.947 26.947 26.947s26.947-11.977 26.947-26.947z" />
<glyph unicode="&#xe62c;" glyph-name="hex-learn-solid" horiz-adv-x="874" d="M435.649 960l-437.895-256v-512l437.895-256 437.895 256v512l-437.895 256zM222.316 253.38l13.474 52.398h402.713l13.474-52.398h-429.661zM235.789 522.854h80.842l-11.228-29.193v-157.942h-52.398v158.69l-17.216 28.444zM342.83 522.854h80.842l-14.222-29.193v-157.942h-52.398v158.69l-14.222 28.444zM450.62 522.854h80.842l-16.468-29.193v-157.942h-52.398v158.69l-11.977 28.444zM557.661 522.854h80.842l-11.977-29.193v-157.942h-52.398v158.69l-16.468 28.444zM222.316 545.31l214.83 133.988 214.83-133.988h-429.661zM464.094 601.45c0-14.883-12.065-26.947-26.947-26.947s-26.947 12.065-26.947 26.947c0 14.883 12.065 26.947 26.947 26.947s26.947-12.065 26.947-26.947z" />
<glyph unicode="&#xe62d;" glyph-name="hex-menu-outline" horiz-adv-x="877" d="M438.536-64l-438.536 256.375v511.25l438.536 256.375 438.536-256.375v-512l-438.536-255.625zM59.971 226.858l378.565-221.142 378.565 221.142v442.284l-378.565 221.142-378.565-221.142v-442.284zM207.649 624.914h461.775v-62.969h-461.775v62.969zM207.649 479.485h461.775v-62.969h-461.775v62.969zM207.649 333.306h461.775v-62.969h-461.775v62.969z" />
<glyph unicode="&#xe62e;" glyph-name="hex-menu-solid" horiz-adv-x="877" d="M438.536 960l-438.536-256.375v-512l438.536-256.375 438.536 256.375v512l-438.536 256.375zM667.174 273.335h-457.277v59.971h457.277v-59.971zM667.174 415.766h-457.277v59.971h457.277v-59.971zM667.174 565.693h-457.277v59.971h457.277v-59.971z" />
<glyph unicode="&#xe62f;" glyph-name="hex-money-outline" horiz-adv-x="877" d="M438.536-64l-438.536 256.375v511.25l438.536 256.375 438.536-256.375v-512l-438.536-255.625zM59.971 226.858l378.565-221.142 378.565 221.142v442.284l-378.565 221.142-378.565-221.142v-442.284zM434.788 648.902c-111.695 0-203.151-90.706-203.151-203.151s90.706-202.401 203.151-202.401 202.401 90.706 202.401 203.151-90.706 202.401-202.401 202.401zM434.788 283.83c-89.956 0-161.921 72.714-161.921 161.921s71.965 162.671 161.921 162.671 161.921-72.714 161.921-161.921-72.714-162.671-161.921-162.671zM448.281 459.994v53.974h53.974v26.987h-53.974v26.987h-26.987v-26.987h-53.974v-107.947h53.974v-53.974h-53.974v-26.987h53.974v-26.987h26.987v26.987h53.974v107.947h-53.974zM421.294 459.994h-26.987v53.974h26.987v-53.974zM475.268 378.284h-26.987v53.974h26.987v-53.974z" />
<glyph unicode="&#xe630;" glyph-name="hex-money-solid" horiz-adv-x="877" d="M397.306 514.717h29.985v-52.474h-29.985v52.474zM449.78 432.258h29.985v-52.474h-29.985v52.474zM438.536 960l-438.536-256.375v-512l438.536-256.375 438.536 256.375v512l-438.536 256.375zM437.037 243.35c-111.695 0-203.151 90.706-203.151 203.151s90.706 203.151 203.151 203.151 203.151-90.706 203.151-203.151-90.706-203.151-203.151-203.151zM437.037 608.422c-89.956 0-161.921-72.714-161.921-161.921s72.714-161.921 161.921-161.921 162.671 71.965 162.671 161.921-72.714 161.921-162.671 161.921zM502.255 514.717h-52.474v-52.474h52.474v-112.445h-52.474v-22.489h-22.489v22.489h-59.971v29.985h59.971v52.474h-59.971v112.445h59.971v22.489h22.489v-22.489h52.474v-29.985z" />
<glyph unicode="&#xe631;" glyph-name="hex-mute-outline" horiz-adv-x="877" d="M438.536-64l-438.536 256.375v511.25l438.536 256.375 438.536-256.375v-512l-438.536-255.625zM59.971 226.858l378.565-221.142 378.565 221.142v442.284l-378.565 221.142-378.565-221.142v-442.284zM399.555 609.171c9.745 9.745 17.991 6.747 17.991-7.496v-321.593c0-14.243-8.246-17.242-17.991-7.496l-93.704 94.454h-62.22v148.428h62.22l93.704 93.704zM616.199 400.023v-32.984h-32.984l-41.23 41.23-41.23-41.23h-32.984v32.984l41.23 41.23-41.23 41.23v32.984h32.984l41.23-41.23 41.23 41.23h32.984v-32.984l-41.23-41.23 41.23-41.23z" />
<glyph unicode="&#xe632;" glyph-name="hex-mute-solid" horiz-adv-x="877" d="M438.536 960l-438.536-256.375v-512l438.536-256.375 438.536 256.375v512l-438.536 256.375zM419.795 287.578c0-14.243-6.747-17.242-16.492-7.496l-92.205 93.704h-63.719v149.927h63.719l93.704 92.205c7.496 9.745 14.993 6.747 14.993-7.496v-320.843zM622.196 489.23l-41.23-41.23 41.23-41.23v-32.984h-32.984l-41.98 41.23-41.23-41.23h-33.734v32.984l41.23 41.23-41.23 41.23v33.734h33.734l41.23-41.23 41.23 41.23h33.734v-33.734z" />
<glyph unicode="&#xe633;" glyph-name="hex-news-outline" horiz-adv-x="874" d="M437.146-64l-437.146 256v512l437.146 256 437.146-256v-512l-437.146-256zM59.883 226.433l377.263-220.819 377.263 220.819v443.135l-377.263 220.819-377.263-220.819v-443.135zM606.316 561.778v56.889h-399.719v-313.637c0-15.719 12.725-28.444 28.444-28.444h384.749c23.953 0 42.667 19.462 42.667 42.667v242.526h-56.14zM577.871 305.029h-342.83v285.193h342.082v-285.193zM264.234 533.333h285.193v-28.444h-285.193v28.444zM434.901 476.444h113.778v-28.444h-113.778v28.444zM434.901 419.556h113.778v-28.444h-113.778v28.444zM434.901 362.667h85.333v-28.444h-85.333v28.444zM264.234 476.444h142.222v-142.222h-142.222v142.222z" />
<glyph unicode="&#xe634;" glyph-name="hex-news-solid" horiz-adv-x="874" d="M238.035 304.281h336.842v284.444h-336.842v-284.444zM522.48 334.222h-89.825v29.942h89.825v-29.942zM552.421 394.105h-119.766v22.456h119.766v-22.456zM552.421 446.503h-119.766v29.942h119.766v-29.942zM260.491 536.327h291.93v-29.942h-291.93v29.942zM260.491 476.444h142.222v-142.222h-142.222v142.222zM436.398 960l-437.895-256v-512l437.895-256 437.895 256v512l-437.895 256zM664.702 320c0-23.953-20.959-45.661-44.164-45.661h-385.497c-15.719 0-26.947 14.971-26.947 30.69v313.637h396.725v-59.883h59.883v-238.784z" />
<glyph unicode="&#xe635;" glyph-name="hex-note-outline" horiz-adv-x="870" d="M434.788-64l-434.788 256.375v511.25l434.788 256.375 434.788-256.375v-512l-434.788-255.625zM59.971 226.858l374.817-221.142 374.817 221.142v442.284l-374.817 221.142-374.817-221.142v-442.284zM564.474 626.413c30.735 0 55.473-24.738 55.473-55.473 0-12.744-4.498-23.988-11.245-33.734l-22.489-22.489-77.212 77.962 22.489 22.489c8.996 6.747 20.99 11.245 32.984 11.245zM286.36 370.038l-22.489-100.451 100.451 22.489 206.149 206.149-77.962 77.962-206.149-206.149zM512.75 499.725l-155.924-155.924-19.49 19.49 155.924 155.924 19.49-19.49z" />
<glyph unicode="&#xe636;" glyph-name="hex-note-solid" horiz-adv-x="862" d="M508.691 499.791l-155.839-155.839-19.082 19.082 155.839 155.839 19.082-19.082zM431.040 960l-431.040-256.375v-512l431.040-256.375 431.040 256.375v512l-431.040 256.375zM359.824 292.076l-100.451-22.489 22.489 100.451 206.149 206.149 77.962-77.962-206.149-206.149zM604.955 537.206l-22.489-22.489-77.962 77.962 22.489 22.489c8.996 6.747 20.99 11.245 33.734 11.245 30.735 0 55.473-24.738 55.473-55.473 0-12.744-4.498-24.738-11.245-33.734z" />
<glyph unicode="&#xe637;" glyph-name="hex-paid-outline" horiz-adv-x="876" d="M437.895-64l-437.895 256v512l437.895 256 437.895-256v-511.251l-437.895-256.749zM67.368 226.433l370.526-220.819 370.526 220.819v443.135l-370.526 220.819-370.526-220.819v-443.135zM166.924 542.316h67.368c44.164 0 76.351-14.971 76.351-62.129 0-44.164-32.936-65.123-76.351-65.123h-32.187v-73.357h-35.181v200.608zM231.298 444.257c29.942 0 44.164 11.977 44.164 36.678 0 25.45-14.971 33.684-44.164 33.684h-28.444v-69.614h28.444zM414.69 438.269c0 15.719-6.737 29.193-26.947 29.193-14.971 0-29.193-6.737-41.918-14.971l-12.725 23.953c16.468 10.48 37.427 19.462 61.38 19.462 37.427 0 56.14-23.205 56.14-65.123v-89.076h-28.444l-2.994 16.468h-0.749c-13.474-11.228-28.444-20.211-46.409-20.211-26.199 0-44.912 17.965-44.912 44.164-0.749 32.187 26.199 49.404 87.579 56.14zM382.503 365.661c11.977 0 21.708 5.988 32.936 16.468v33.684c-40.421-5.24-53.895-15.719-53.895-30.69-0.749-13.474 8.234-19.462 20.959-19.462zM488.795 538.573c0 11.977 8.982 20.211 21.708 20.211s21.708-8.234 21.708-20.211c0-11.977-8.982-20.211-21.708-20.211-11.977 0-21.708 8.982-21.708 20.211zM493.287 492.164h35.181v-150.456h-35.181v150.456zM628.023 495.906c17.216 0 27.696-6.737 39.673-16.468l-1.497 23.953v54.643h35.181v-216.327h-29.193l-2.246 16.468h-1.497c-11.228-11.228-26.199-20.211-42.667-20.211-37.427 0-62.129 29.193-62.129 78.596 0.749 49.404 31.439 79.345 64.374 79.345zM634.76 367.158c11.977 0 21.708 5.24 31.439 17.216v70.363c-10.48 8.982-20.211 12.725-30.69 12.725-19.462 0-35.181-17.965-35.181-49.404 0-32.936 12.725-50.901 34.433-50.901z" />
<glyph unicode="&#xe638;" glyph-name="hex-paid-solid" horiz-adv-x="868" d="M358.438 381.972c0-13.583 9.81-19.62 22.638-19.62 12.074 0 18.865 6.037 33.957 16.601v33.957c-45.276-4.528-56.595-15.847-56.595-30.939zM226.382 511.764h-30.184v-67.915h30.184c30.184 0 44.522 10.564 44.522 35.466s-15.092 32.448-44.522 32.448zM599.157 414.42c0-32.448 12.074-50.559 33.957-50.559 12.074 0 24.147 5.282 31.693 17.356v70.933c-7.546 9.055-20.374 12.828-30.184 12.828-20.374 0-35.466-18.111-35.466-50.559zM433.898 960l-433.898-255.811v-511.623l433.898-255.811 433.898 255.811v511.623l-433.898 255.811zM230.155 413.665h-33.957v-75.461h-37.73v203.744h71.688c44.522 0 76.97-15.847 76.97-62.632-0.755-45.276-33.957-65.651-76.97-65.651zM445.217 338.205h-27.166l-3.018 15.092h-0.755c-13.583-7.546-28.675-18.865-46.786-18.865-26.411 0-45.276 18.865-45.276 45.276 0 32.448 27.166 49.804 89.043 56.595 0 15.847-6.791 29.43-27.166 29.43-15.092 0-29.43-6.791-42.258-15.092l-12.828 24.147c16.601 10.564 36.976 19.62 61.123 19.62 37.73 0 55.841-23.393 55.841-65.651v-90.553zM528.224 338.205h-37.73v150.921h37.73v-150.921zM508.604 517.046c-12.828 0-21.884 8.301-21.884 20.374s9.055 20.374 21.884 20.374c12.828 0 21.884-8.301 21.884-20.374s-9.81-20.374-21.884-20.374zM701.783 338.205h-30.939l-2.264 15.092h-1.509c-11.319-7.546-26.411-18.865-43.013-18.865-37.73 0-62.632 30.184-62.632 79.988 0 49.049 30.939 79.988 64.141 79.988 17.356 0 27.92-6.037 39.239-16.601l-0.755 24.147v55.086h37.73v-218.836z" />
<glyph unicode="&#xe639;" glyph-name="hex-phone-outline" horiz-adv-x="874" d="M437.146-64l-437.146 256v512l437.146 256 437.146-256v-511.251l-437.146-256.749zM59.883 226.433l377.263-220.819 377.263 220.819v443.135l-377.263 220.819-377.263-220.819v-443.135zM359.298 390.363c-44.164 62.129-75.602 128-82.339 172.912-2.246 8.982-2.246 17.965 0 27.696 0.749 2.246 0.749 4.491 1.497 6.737 2.994 8.982 6.737 17.216 13.474 25.45 7.485 9.731 17.216 18.713 29.193 24.702 0 0 1.497 0.749 2.246 1.497 3.743 1.497 5.988 2.994 7.485 3.743l11.228 5.24c2.994 1.497 5.988 1.497 9.731 1.497 4.491-0.749 8.234-2.994 11.228-6.737 0.749-0.749 1.497-2.246 1.497-2.994l43.415-99.556c2.246-5.24 1.497-11.228-1.497-15.719-1.497-2.994-4.491-4.491-7.485-5.988l-11.228-5.24c-1.497-0.749-4.491-1.497-8.234-2.994l-2.994-2.246c-2.994-0.749-5.24-1.497-8.234-2.246-9.731-9.731 0.749-50.901 32.936-96.561l0.749-0.749c31.439-44.164 67.368-68.117 80.094-61.38 1.497 2.246 2.994 5.24 4.491 7.485 0 0 0.749 1.497 1.497 2.246 2.246 2.994 4.491 5.24 5.24 5.988l8.234 8.982c2.246 2.246 5.24 3.743 8.234 4.491 5.24 1.497 11.228 0 15.719-3.743l80.094-73.357c0.749-0.749 1.497-1.497 2.246-2.246 2.246-3.743 3.743-8.234 2.994-12.725-0.749-2.994-2.246-5.988-4.491-8.234l-8.234-8.982c-0.749-0.749-2.994-2.994-5.988-5.988-0.749-0.749-2.246-2.246-2.246-2.246-9.731-8.982-20.959-14.971-32.936-18.713-8.982-2.994-17.965-4.491-26.199-4.491-6.737-0.749-14.222 0.749-23.205 4.491v0c-39.673 15.719-96.561 69.614-145.965 137.731l-2.246 2.246z" />
<glyph unicode="&#xe63a;" glyph-name="hex-phone-solid" horiz-adv-x="874" d="M437.146 960l-437.895-256v-511.251l437.895-256 437.895 256v511.251l-437.895 256zM599.579 293.801c-0.749-2.994-2.246-5.988-4.491-8.234l-8.234-8.982c-0.749-0.749-2.994-2.994-5.988-5.988-0.749-0.749-2.246-2.246-2.246-2.246-9.731-8.982-20.959-14.971-32.936-18.713-8.982-2.994-17.965-4.491-26.199-4.491-6.737-0.749-14.222 0.749-23.205 4.491v0c-39.673 15.719-96.561 69.614-145.965 137.731l-1.497 2.246c-44.164 62.877-76.351 128.749-83.088 173.661-2.246 8.982-2.246 17.965 0 27.696 0.749 2.246 0.749 4.491 1.497 6.737 2.994 8.982 6.737 17.216 13.474 25.45 7.485 9.731 17.216 18.713 29.193 24.702 0 0 1.497 0.749 2.246 1.497 3.743 1.497 5.988 2.994 7.485 3.743l11.228 5.24c2.994 1.497 5.988 1.497 9.731 1.497 4.491-0.749 8.234-2.994 11.228-6.737 0.749-0.749 1.497-2.246 1.497-2.994l43.415-99.556c2.246-5.24 1.497-11.228-1.497-15.719-1.497-2.994-4.491-4.491-7.485-5.988l-11.228-5.24c-1.497-0.749-4.491-1.497-8.234-2.994l-2.994-2.246c-2.994-0.749-5.24-1.497-8.234-2.246-9.731-9.731 0.749-50.901 32.936-96.561l0.749-0.749c31.439-44.164 67.368-68.117 80.094-61.38 1.497 2.246 2.994 5.24 4.491 7.485 0 0 0.749 1.497 1.497 2.246 2.246 2.994 4.491 5.24 5.24 5.988l8.234 8.982c2.246 2.246 5.24 3.743 8.234 4.491 5.24 1.497 11.228 0 15.719-3.743l80.094-73.357c0.749-0.749 1.497-1.497 2.246-2.246 2.994-4.491 3.743-8.982 2.994-13.474z" />
<glyph unicode="&#xe63b;" glyph-name="hex-received-outline-" horiz-adv-x="877" d="M438.536-64l-438.536 256.375v511.25l438.536 256.375 438.536-256.375v-512l-438.536-255.625zM59.971 226.858l378.565-221.142 378.565 221.142v442.284l-378.565 221.142-378.565-221.142v-442.284zM556.228 615.168h-238.384l-71.215-71.215v-251.127c0-6.747 5.247-11.994 11.994-11.994h357.575c6.747 0 11.994 5.247 11.994 11.994v250.378l-71.965 71.965zM437.037 328.808l-119.192 95.204h71.965v71.215h95.204v-71.215h71.215l-119.192-95.204zM304.351 567.192l23.988 23.988h218.893l23.988-23.988h-266.87z" />
<glyph unicode="&#xe63c;" glyph-name="hex-received-solid-" horiz-adv-x="877" d="M487.262 494.477h-97.452v-67.467h-71.215l119.192-95.953 119.192 95.953h-69.716zM438.536 960l-438.536-256.375v-512l438.536-256.375 438.536 256.375v512l-438.536 256.375zM629.693 292.826c0-6.747-5.997-8.246-12.744-8.246h-357.575c-6.747 0-11.994 2.249-11.994 8.246v250.378l71.215 71.215h238.384l72.714-71.215v-250.378zM328.34 591.93l-23.239-22.489h266.12l-23.988 22.489z" />
<glyph unicode="&#xe63d;" glyph-name="hex-reload-outline-" horiz-adv-x="874" d="M437.146-64l-437.146 256v512l437.146 256 437.146-256v-512l-437.146-256zM59.883 226.433l377.263-220.819 377.263 220.819v443.135l-377.263 220.819-377.263-220.819v-443.135zM570.386 581.24c-34.433 34.433-81.591 55.392-133.988 55.392-80.842 0-150.456-50.901-176.655-122.76l44.164-16.468c20.211 53.895 71.86 92.070 132.491 92.070 38.924 0 74.854-15.719 100.304-41.17l-53.146-53.146h141.474v141.474l-54.643-55.392zM437.146 306.526c-38.924 0-74.854 15.719-100.304 41.17l53.146 53.146h-142.222v-141.474l55.392 55.392c34.433-34.433 81.591-55.392 133.988-55.392 80.842 0 150.456 50.901 176.655 122.76l-44.164 16.468c-20.211-53.895-71.86-92.070-132.491-92.070z" />
<glyph unicode="&#xe63e;" glyph-name="hex-reload-solid-" horiz-adv-x="874" d="M436.398 960l-437.895-256v-512l437.895-256 437.895 256v512l-437.895 256zM437.146 258.62c-52.398 0-101.053 20.959-134.737 55.392l-56.889-55.392v142.222h144.468l-53.146-53.146c25.45-25.45 61.38-41.918 100.304-41.918 60.632 0 112.281 38.175 132.491 92.070l44.164-16.468c-26.947-71.111-95.813-122.76-176.655-122.76zM627.275 498.152h-142.971l53.146 51.649c-25.45 25.45-61.38 40.421-100.304 40.421-60.632 0-112.281-38.924-132.491-92.070l-44.164 16.468c26.947 71.86 95.813 122.76 176.655 122.76 52.398 0 100.304-20.959 133.988-55.392l56.14 55.392v-139.228z" />
<glyph unicode="&#xe63f;" glyph-name="hex-report-outline" horiz-adv-x="877" d="M438.536-64l-438.536 256.375v511.25l438.536 256.375 438.536-256.375v-511.25l-438.536-256.375zM59.971 226.858l378.565-221.142 378.565 221.142v442.284l-378.565 221.142-378.565-221.142v-442.284zM595.959 651.151h-305.101c-20.99 0-38.231-17.242-38.231-38.231v-329.839c0-20.99 17.242-38.231 38.231-38.231h305.101c20.99 0 38.231 17.242 38.231 38.231v329.839c0 20.99-17.242 38.231-38.231 38.231zM583.215 295.824h-279.613v304.351h279.613v-304.351zM354.577 422.512h177.663v-25.488h-177.663v25.488zM354.577 371.537h177.663v-25.488h-177.663v25.488zM380.064 537.206c0 20.99 17.242 38.231 38.231 38.231s38.231-17.242 38.231-38.231-17.242-38.231-38.231-38.231-38.231 16.492-38.231 38.231zM443.783 498.975h-50.975c-20.99 0-38.231-11.245-38.231-25.488v-25.488h126.688v25.488c0 13.493-16.492 25.488-37.482 25.488z" />
<glyph unicode="&#xe640;" glyph-name="hex-report-solid" horiz-adv-x="877" d="M299.854 292.826h277.365v307.35h-277.365v-307.35zM352.328 473.488c0 14.243 16.492 21.739 37.482 21.739h25.488c-20.99 0-38.231 18.741-38.231 39.731s17.242 38.981 38.231 38.981c20.99 0 38.231-18.741 38.231-39.731s-17.242-38.981-38.231-38.981h25.488c20.99 0 38.981-7.496 38.981-21.739v-23.239h-127.438v23.239zM352.328 420.264h179.912v-22.489h-179.912v22.489zM352.328 375.286h179.912v-29.985h-179.912v29.985zM438.536 960l-438.536-256.375v-511.25l438.536-256.375 438.536 256.375v511.25l-438.536 256.375zM629.693 286.079c0-20.99-17.242-38.231-38.231-38.231h-305.851c-20.99 0-38.231 17.242-38.231 38.231v328.34c0 20.99 17.242 38.231 38.231 38.231h305.851c20.99 0 38.231-17.242 38.231-38.231v-328.34z" />
<glyph unicode="&#xe641;" glyph-name="hex-reportReceived-outline" horiz-adv-x="877" d="M438.536-64l-438.536 256.375v511.25l438.536 256.375 438.536-256.375v-511.25l-438.536-256.375zM59.971 226.858l378.565-221.142 378.565 221.142v442.284l-378.565 221.142-378.565-221.142v-442.284zM421.294 343.051l-81.71 93.704 23.239 23.239 58.471-45.728 108.697 96.703 23.239-23.239-131.936-144.679zM573.47 606.922c0 0 0 0 0 0v-304.351c0 0 0 0 0 0h-253.376c0 0 0 0 0 0v304.351c0 0 0 0 0 0h-50.975v-305.101c0-27.736 22.489-50.975 50.975-50.975h254.126c27.736 0 50.975 22.489 50.975 50.975v305.101h-51.725zM497.757 606.922v25.488c0 14.243-11.245 25.488-25.488 25.488h-50.975c-14.243 0-25.488-11.245-25.488-25.488v-25.488h-50.975v-50.975h203.151v50.975h-50.225zM472.269 606.922h-50.975v25.488h50.975v-25.488z" />
<glyph unicode="&#xe642;" glyph-name="hex-reportReceived-solid" horiz-adv-x="877" d="M419.795 631.66h52.474v-22.489h-52.474v22.489zM438.536 960l-438.536-256.375v-511.25l438.536-256.375 438.536 256.375v511.25l-438.536 256.375zM344.832 609.171h52.474v23.988c0 14.243 8.246 28.486 21.739 28.486h50.975c14.243 0 24.738-14.993 24.738-28.486v-23.988h52.474v-52.474h-202.401v52.474zM361.324 459.994l58.471-45.728 108.697 96.703 23.239-23.239-132.685-144.679-80.96 93.704 23.239 23.239zM622.196 302.571c0-27.736-22.489-53.224-50.225-53.224h-254.126c-27.736 0-47.977 25.488-47.977 53.224v306.6h47.977c0 0-2.999-1.499-2.999-1.499v-304.351c0 0 2.999-0.75 2.999-0.75h254.126c0 0-2.249 0.75-2.249 0.75v303.602c0 0 0.75 0.75 0.75 0.75l0.75 0.75h50.975v-305.851z" />
<glyph unicode="&#xe643;" glyph-name="hex-sampleReceived-outline" horiz-adv-x="877" d="M438.536-64l-438.536 256.375v511.25l438.536 256.375 438.536-256.375v-511.25l-438.536-256.375zM59.971 226.858l378.565-221.142 378.565 221.142v442.284l-378.565 221.142-378.565-221.142v-442.284zM622.196 493.728l-23.239 23.239-108.697-95.953-58.471 44.978-23.239-23.239 0.75-0.75h-0.75l29.985-35.982 51.725-58.471 51.725 57.722zM489.511 303.321l-22.489 24.738-68.217 77.962h-67.467l73.464 120.691v81.71h37.482v-80.96l37.482-61.47 8.246-5.997 13.493 11.994-36.732 61.47v74.963h12.744c5.997 0 10.495 5.247 10.495 11.245s-5.247 11.245-10.495 11.245h-108.697c-5.997 0-10.495-5.247-10.495-11.245s5.247-11.245 10.495-11.245h13.493v-74.963l-108.697-180.662c-24.738-41.98-6.747-74.214 41.23-74.214h217.394c47.977 0 66.717 32.984 41.98 74.214l-15.742 26.237-68.966-75.713z" />
<glyph unicode="&#xe644;" glyph-name="hex-sampleReceived-solid" horiz-adv-x="877" d="M438.536-64l-438.536 256.375v511.25l438.536 256.375 438.536-256.375v-511.25l-438.536-256.375zM617.698 493.728l-23.239 23.239-109.447-95.953-57.722 44.978-23.239-23.239v-0.75l29.985-35.982 50.975-58.471 52.474 57.722h-0.75zM484.264 303.321l-22.489 24.738-68.217 77.962h-67.467l71.215 120.691v81.71h37.482v-80.96l38.981-61.47 8.996-5.997 11.994 11.994-37.482 60.72v74.963h15.742c5.997 0 10.495 5.247 10.495 11.245s-5.247 11.245-10.495 11.245h-108.697c-5.997 0-10.495-5.247-10.495-11.245s5.247-11.245 10.495-11.245h10.495v-74.963l-107.198-179.912c-24.738-41.98-5.247-74.214 41.98-74.214h217.394c47.977 0 66.717 32.984 41.98 74.214l-15.742 26.237-68.966-75.713z" />
<glyph unicode="&#xe645;" glyph-name="hex-search-outline" horiz-adv-x="874" d="M437.146-64l-437.146 256v512l437.146 256 437.146-256v-512l-437.146-256zM59.883 226.433l377.263-220.819 377.263 220.819v443.135l-377.263 220.819-377.263-220.819v-443.135zM627.275 305.778l-96.561 81.591c-9.731 8.982-20.211 12.725-29.193 12.725 22.456 26.199 36.678 60.632 36.678 98.807 0 83.836-68.117 151.953-151.953 151.953s-151.953-68.117-151.953-151.953 68.117-151.953 151.953-151.953c37.427 0 71.86 13.474 98.807 36.678-0.749-8.234 3.743-19.462 12.725-29.193l81.591-95.813c14.222-15.719 36.678-16.468 50.901-2.994 13.474 13.474 11.977 35.93-2.994 50.152zM386.246 397.099c-56.14 0-101.053 45.661-101.053 101.053s45.661 101.053 101.053 101.053 101.053-45.661 101.053-101.053-44.912-101.053-101.053-101.053z" />
<glyph unicode="&#xe646;" glyph-name="hex-search-solid" horiz-adv-x="874" d="M487.298 498.901c0-55.81-45.243-101.053-101.053-101.053s-101.053 45.243-101.053 101.053c0 55.81 45.243 101.053 101.053 101.053s101.053-45.243 101.053-101.053zM436.398 960l-437.895-256v-512l437.895-256 437.895 256v512l-437.895 256zM629.52 254.877c-14.222-14.222-36.678-12.725-50.901 2.994l-80.842 95.813c-8.982 9.731-12.725 20.211-12.725 29.193-26.199-22.456-60.632-36.678-98.807-36.678-83.836 0-151.953 68.117-151.953 151.953s68.117 151.953 151.953 151.953c83.836 0 151.953-68.117 151.953-151.953 0-37.427-13.474-71.86-36.678-98.807 8.234 0.749 19.462-3.743 29.193-12.725l95.813-81.591c15.719-13.474 17.216-35.93 2.994-50.152z" />
<glyph unicode="&#xe647;" glyph-name="hex-settings-outline" horiz-adv-x="876" d="M441.637-64l-434.152 256v510.503l434.152 256 434.152-256v-511.251l-434.152-255.251zM67.368 226.433l374.269-220.819 374.269 220.819v441.637l-374.269 220.819-374.269-220.819v-441.637zM386.246 370.901l14.971 20.959-16.468 16.468-20.959-14.971c-3.743 2.246-8.234 3.743-12.725 5.24l-4.491 25.45h-23.205l-2.994-25.45c-4.491-1.497-8.234-2.994-12.725-5.24l-20.959 14.971-16.468-16.468 14.971-20.959c-2.246-3.743-3.743-8.234-5.24-12.725l-25.45-4.491v-22.456l25.45-4.491c1.497-4.491 2.994-8.234 5.24-12.725l-14.971-20.959 16.468-16.468 20.959 14.971c3.743-2.246 8.234-3.743 12.725-5.24l4.491-25.45h23.205l4.491 25.45c4.491 1.497 8.234 2.994 12.725 5.24l20.959-14.971 16.468 16.468-14.971 20.959c2.246 3.743 3.743 8.234 5.24 12.725l25.45 4.491v23.205l-25.45 4.491c-2.994 3.743-4.491 8.234-6.737 11.977v0zM336.094 320c-12.725 0-23.205 10.48-23.205 23.205s10.48 23.205 23.205 23.205 23.205-10.48 23.205-23.205c0-13.474-10.48-23.205-23.205-23.205zM624.281 492.912v23.205l-23.953 4.491c-0.749 2.994-0.749 5.988-1.497 8.234l20.959 13.474-8.982 20.959-23.953-5.24c-1.497 2.246-2.994 5.24-5.24 7.485l14.222 20.211-16.468 16.468-20.211-14.222c-2.246 1.497-4.491 2.994-7.485 5.24l5.24 23.953-20.959 8.982-13.474-20.959c-2.994 0.749-5.988 1.497-8.234 1.497l-5.24 24.702h-23.205l-4.491-23.953c-2.994-0.749-5.988-0.749-8.234-1.497l-13.474 20.959-20.959-8.982 5.24-23.953c-2.246-1.497-5.24-2.994-7.485-5.24l-20.211 14.222-16.468-17.216 14.222-20.211c-1.497-2.246-2.994-4.491-5.24-7.485l-23.953 5.24-8.982-20.959 20.959-13.474c-0.749-2.994-1.497-5.988-1.497-8.234l-23.953-4.491v-23.205l23.953-4.491c0.749-2.994 0.749-5.988 1.497-8.234l-20.959-13.474 8.982-20.959 23.953 5.24c1.497-2.246 2.994-5.24 5.24-7.485l-14.222-20.211 16.468-16.468 20.211 14.222c2.246-1.497 4.491-2.994 7.485-5.24l-5.24-23.953 20.959-8.982 13.474 20.959c2.994-0.749 5.988-1.497 8.234-1.497l4.491-23.953h23.205l4.491 23.953c2.994 0.749 5.988 0.749 8.234 1.497l13.474-20.959 20.959 8.982-5.24 23.953c2.246 1.497 5.24 2.994 7.485 5.24l20.211-14.222 16.468 16.468-14.222 20.211c1.497 2.246 2.994 4.491 5.24 7.485l23.953-5.24 8.982 20.959-20.211 13.474c0.749 2.994 1.497 5.988 1.497 8.234l23.953 4.491zM497.778 453.988c-27.696 0-50.152 22.456-50.152 50.152s22.456 50.152 50.152 50.152c27.696 0 50.152-22.456 50.152-50.152s-22.456-50.152-50.152-50.152z" />
<glyph unicode="&#xe648;" glyph-name="hex-settings-solid" horiz-adv-x="868" d="M351.813 342.456c0-12.816-10.389-23.205-23.205-23.205s-23.205 10.389-23.205 23.205c0 12.816 10.389 23.205 23.205 23.205s23.205-10.389 23.205-23.205zM540.444 504.14c0-27.698-22.454-50.152-50.152-50.152s-50.152 22.454-50.152 50.152c0 27.698 22.454 50.152 50.152 50.152s50.152-22.454 50.152-50.152zM430.409 958.503l-430.409-256v-511.251l430.409-256 430.409 256v511.251l-430.409 256zM411.696 331.228l-26.199-4.491c-1.497-4.491-3.743-8.234-5.988-12.725l14.971-20.959-16.468-16.468-20.959 14.971c-3.743-2.246-8.234-5.24-12.725-5.988l-4.491-26.199h-23.205l-3.743 26.947c-4.491 1.497-8.234 3.743-12.725 5.988l-20.959-14.222-15.719 15.719 14.971 20.959c-2.246 3.743-4.491 8.234-5.24 12.725l-26.199 3.743v23.205l25.45 4.491c1.497 4.491 2.994 8.234 5.24 12.725l-14.971 20.959 16.468 16.468 20.959-14.971c3.743 2.246 8.234 4.491 12.725 5.24l4.491 25.45h23.205l3.743-26.199c4.491-1.497 8.234-2.994 12.725-5.24l20.959 14.971 16.468-15.719-14.971-20.211c2.246-7.485 5.24-8.234 5.988-12.725l26.199-4.491v-23.953zM613.801 492.912l-22.456-4.491c-0.749-2.994 0-5.988-0.749-8.234l20.959-13.474-8.982-20.959-23.953 5.24c-1.497-2.246-2.994-5.24-4.491-7.485l14.222-20.211-16.468-17.216-20.211 14.222c-2.246-1.497-4.491-2.994-7.485-5.24l5.24-23.953-20.959-8.982-13.474 20.959c-2.994-0.749-5.988 0-8.234-0.749l-5.24-23.205h-22.456l-4.491 23.205c-2.994 0.749-5.988 0.749-8.234 1.497l-13.474-20.959-20.959 8.982 5.24 23.953c-2.246 1.497-5.24 2.994-7.485 4.491l-20.211-14.222-16.468 16.468 14.222 20.211c-1.497 2.246-2.994 4.491-5.24 7.485l-23.953-5.24-8.982 20.959 20.959 13.474c-0.749 2.994 0.749 5.988 0 8.234l-22.456 4.491v23.205l22.456 4.491c0.749 2.994 0 5.988 0.749 8.234l-20.959 13.474 8.982 20.959 23.953-5.24c1.497 2.246 2.994 5.24 4.491 7.485l-14.971 20.959 16.468 16.468 20.211-14.222c2.246 1.497 4.491 2.994 7.485 5.24l-5.24 23.953 20.959 8.982 13.474-20.959c2.994 0.749 5.988 2.246 8.234 2.994l4.491 25.45h23.205l4.491-25.45c2.994-0.749 5.988-1.497 8.234-2.246l13.474 20.211 20.959-8.982-4.491-23.953c2.246-1.497 5.24-2.994 7.485-5.24l20.211 14.222 16.468-16.468-14.222-20.211c1.497-2.246 2.994-4.491 5.24-7.485l23.953 5.24 8.982-20.959-20.959-13.474c0.749-2.994-0.749-5.988 0-8.234l22.456-4.491v-23.205z" />
<glyph unicode="&#xe649;" glyph-name="hex-skip-outline" horiz-adv-x="874" d="M437.146-64l-437.146 256v512l437.146 256 437.146-256v-512l-437.146-256zM59.883 226.433l377.263-220.819 377.263 220.819v443.135l-377.263 220.819-377.263-220.819v-443.135zM597.333 608.187v-321.123h-53.146v147.462l-133.988-133.988v133.988l-133.988-133.988v294.924l133.988-133.988v133.988l133.988-133.988v146.713h53.146z" />
<glyph unicode="&#xe64a;" glyph-name="hex-skip-solid" horiz-adv-x="874" d="M436.398 960l-437.895-256v-512l437.895-256 437.895 256v512l-437.895 256zM597.333 284.070h-52.398v150.456l-134.737-133.988v133.988l-134.737-133.988v294.924l134.737-133.988v133.988l134.737-133.988v144.468h52.398v-321.871z" />
<glyph unicode="&#xe64b;" glyph-name="hex-test-outline" horiz-adv-x="870" d="M434.788-64l-434.788 256.375v511.25l434.788 256.375 434.788-256.375v-512l-434.788-255.625zM59.971 226.858l374.817-221.142 374.817 221.142v442.284l-374.817 221.142-374.817-221.142v-442.284zM589.212 346.799l-107.947 182.161v73.464h10.495c5.997 0 10.495 5.247 10.495 11.245s-5.247 11.245-10.495 11.245h-107.947c-5.997 0-10.495-5.247-10.495-11.245s5.247-11.245 10.495-11.245h10.495v-73.464l-107.198-182.161c-24.738-41.98-5.247-75.713 41.98-75.713h217.394c47.977 0 66.717 34.483 42.729 75.713zM346.331 403.772l70.466 119.192v79.461h43.479v-79.461l70.466-119.192h-184.41z" />
<glyph unicode="&#xe64c;" glyph-name="hex-test-solid" horiz-adv-x="862" d="M457.277 600.176h-37.482v-77.212l-72.714-117.693h183.66l-73.464 117.693zM431.040 960l-431.040-256.375v-512l431.040-256.375 431.040 256.375v512l-431.040 256.375zM547.233 270.337h-217.394c-47.977 0-65.968 34.483-41.23 76.463l108.697 182.161v71.215h-12.744c-5.997 0-10.495 5.247-10.495 11.245s5.247 11.245 10.495 11.245h108.697c5.997 0 10.495-5.247 10.495-11.245s-5.247-11.245-10.495-11.245h-13.493v-71.215l108.697-182.161c24.738-41.98 6.747-76.463-41.23-76.463z" />
<glyph unicode="&#xe64d;" glyph-name="hex-testReceived-outline" horiz-adv-x="877" d="M438.536-64l-438.536 256.375v511.25l438.536 256.375 438.536-256.375v-511.25l-438.536-256.375zM59.971 226.858l378.565-221.142 378.565 221.142v442.284l-378.565 221.142-378.565-221.142v-442.284zM622.196 493.728l-23.239 23.239-108.697-95.953-58.471 44.978-23.239-23.239 0.75-0.75h-0.75l29.985-35.982 51.725-58.471 51.725 57.722zM489.511 303.321l-22.489 24.738-68.217 77.962h-67.467l73.464 120.691v81.71h37.482v-80.96l37.482-61.47 8.246-5.997 13.493 11.994-36.732 61.47v74.963h12.744c5.997 0 10.495 5.247 10.495 11.245s-5.247 11.245-10.495 11.245h-108.697c-5.997 0-10.495-5.247-10.495-11.245s5.247-11.245 10.495-11.245h13.493v-74.963l-108.697-180.662c-24.738-41.98-6.747-74.214 41.23-74.214h217.394c47.977 0 66.717 32.984 41.98 74.214l-15.742 26.237-68.966-75.713z" />
<glyph unicode="&#xe64e;" glyph-name="hex-testReceived-solid" horiz-adv-x="877" d="M438.536 960l-438.536-256.375v-511.25l438.536-256.375 438.536 256.375v511.25l-438.536 256.375zM526.993 278.583h-217.394c-47.977 0-66.717 32.984-41.98 74.214l107.198 180.662v74.963h-10.495c-5.997 0-10.495 5.247-10.495 11.245s5.247 11.245 10.495 11.245h108.697c5.997 0 10.495-5.247 10.495-11.245s-5.247-11.245-10.495-11.245h-15.742v-74.963l37.482-60.72-11.994-11.994-8.996 5.997-38.981 59.971v81.71h-37.482v-80.96l-71.215-121.441h67.467l68.217-77.962 22.489-24.738 22.489 25.488 45.728 50.225 15.742-26.237c25.488-41.98 6.747-74.214-41.23-74.214zM536.738 405.271v0l-51.725-57.722-50.975 58.471-29.985 35.982 0.75 0.75h-0.75l23.239 23.239 58.471-45.728 108.697 96.703 23.239-23.239-80.96-88.457z" />
<glyph unicode="&#xe64f;" glyph-name="hex-testTube-outline" horiz-adv-x="877" d="M438.536-64l-438.536 256.375v511.25l438.536 256.375 438.536-256.375v-512l-438.536-255.625zM59.971 226.858l378.565-221.142 378.565 221.142v442.284l-378.565 221.142-378.565-221.142v-442.284zM435.537 179.631c-53.974 0-98.202 44.228-98.202 98.202v304.351c-12.744 7.496-20.99 21.739-20.99 36.732 0 23.239 19.49 42.729 42.729 42.729h152.176c23.239 0 42.729-19.49 42.729-42.729 0-14.993-8.246-29.236-20.99-36.732v-304.351c0.75-53.974-43.479-98.202-97.452-98.202zM359.824 628.662c-5.247 0-9.745-4.498-9.745-9.745 0-4.498 2.999-8.996 7.496-9.745l12.744-2.999v-328.34c0-35.982 29.236-65.218 65.218-65.218s65.218 29.236 65.218 65.218v328.34l12.744 2.999c4.498 0.75 7.496 5.247 7.496 9.745 0 5.247-4.498 9.745-9.745 9.745h-151.426zM442.284 370.788v14.993h37.482v14.993h-37.482v14.993h37.482v22.489h-89.956v-159.672c0-24.738 20.24-44.228 44.978-44.228s44.978 20.24 44.978 44.228v92.205h-37.482z" />
<glyph unicode="&#xe650;" glyph-name="hex-testTube-solid" horiz-adv-x="877" d="M512 633.16h-152.176c-5.247 0-9.745-2.999-9.745-8.246 0-4.498 1.499-8.246 5.997-8.996l11.245-2.249v-328.34c0-35.982 31.485-65.218 67.467-65.218s67.467 29.236 67.467 65.218v328.34l11.994 2.999c4.498 0.75 7.496 3.748 7.496 8.246 0 5.247-4.498 8.246-9.745 8.246zM479.766 423.262h-37.482v-14.993h37.482v-14.993h-37.482v-14.993h37.482v-92.205c0-24.738-20.24-44.228-44.978-44.228s-44.978 20.24-44.978 44.228v159.672h89.956v-22.489zM438.536 967.496l-438.536-256.375v-512l438.536-256.375 438.536 256.375v512l-438.536 256.375zM532.24 589.681v-304.351c0-53.974-43.479-98.202-97.452-98.202s-97.452 44.228-97.452 98.202v304.351c-14.993 7.496-20.99 22.489-20.99 37.482 0 23.239 19.49 43.479 42.729 43.479h152.176c23.239 0 41.98-20.24 41.98-43.479 0.75-15.742-5.997-29.985-20.99-37.482z" />
<glyph unicode="&#xe651;" glyph-name="hex-trophy-outline" horiz-adv-x="877" d="M440.035-64l-444.533 254.876-1.499 512 443.034 257.124 444.533-254.876 1.499-512-443.034-257.124zM53.224 223.859l386.811-221.892 385.312 224.141-1.499 446.032-386.811 221.142-385.312-223.391 1.499-446.032zM556.978 561.944v53.974h-241.382v-53.974h-71.215v-53.974c0-44.978 26.237-80.96 71.215-80.96 8.246 0 16.492 1.499 23.988 3.748 19.49-27.736 39.731-47.977 74.214-54.723v-83.959h-26.987c-29.985 0-53.974-23.988-53.974-53.974h206.899c0 29.985-23.988 53.974-53.974 53.974h-26.987v83.959c34.483 6.747 54.723 26.987 74.214 54.723 7.496-2.249 15.742-3.748 23.988-3.748 44.978 0 71.215 35.982 71.215 80.96v53.974h-71.215zM315.596 459.245c-26.987 0-38.981 21.739-38.981 48.726v26.987h38.981v-26.987c0-17.242 2.999-32.984 8.996-47.977-2.999-0.75-5.997-0.75-8.996-0.75zM595.959 507.971c0-26.987-11.994-48.726-38.981-48.726-2.999 0-5.997 0-8.996 0.75 5.997 14.993 8.996 31.485 8.996 47.977v26.987h38.981v-26.987z" />
<glyph unicode="&#xe652;" glyph-name="hex-trophy-solid" horiz-adv-x="877" d="M314.846 528.211h-37.482v-24.738c0-26.987 12.744-48.726 39.731-48.726 2.999 0 4.498 0 7.496 0.75-5.997 14.993-9.745 31.485-9.745 47.977v24.738zM562.225 503.473c0-17.242-5.247-32.984-10.495-47.977 2.999-0.75 5.997-0.75 8.996-0.75 26.987 0 38.981 21.739 38.981 48.726v24.738h-37.482v-24.738zM438.536 955.502l-438.536-256.375v-511.25l438.536-256.375 438.536 256.375v511.25l-438.536 256.375zM629.693 503.473c0-44.978-26.237-80.96-71.215-80.96-8.246 0-17.991 1.499-25.488 3.748-19.49-27.736-38.231-47.977-75.713-54.723v-83.209h29.985c29.985 0 53.974-22.489 53.974-52.474h-206.149c0 29.985 23.988 52.474 53.974 52.474h23.239v83.209c-29.985 6.747-52.474 26.987-71.965 54.723-7.496-2.249-14.243-3.748-22.489-3.748-44.978 0-69.716 35.982-69.716 80.96v54.723h67.467v52.474h247.379v-52.474h67.467v-54.723z" />
<glyph unicode="&#xe653;" glyph-name="hex-truck-outline" horiz-adv-x="877" d="M438.536-64l-438.536 256.375v511.25l438.536 256.375 438.536-256.375v-512l-438.536-255.625zM59.971 226.858l378.565-221.142 378.565 221.142v442.284l-378.565 221.142-378.565-221.142v-442.284zM639.438 413.517l-44.978 89.206h-66.717v44.978c0 11.994-9.745 22.489-22.489 22.489h-200.902c-11.994 0-22.489-9.745-22.489-22.489v-179.163l22.489-22.489h28.486c-3.748-6.747-5.997-14.243-5.997-22.489 0-24.738 20.24-44.978 44.978-44.978s44.978 20.24 44.978 44.978c0 8.246-2.249 15.742-5.997 22.489h123.69c-3.748-6.747-5.997-14.243-5.997-22.489 0-24.738 20.24-44.978 44.978-44.978s44.978 20.24 44.978 44.978c0 8.246-2.249 15.742-5.997 22.489h28.486l-1.499 67.467zM527.742 413.517v56.223h46.477l27.736-56.223h-74.214z" />
<glyph unicode="&#xe654;" glyph-name="hex-truck-solid" horiz-adv-x="877" d="M524.744 470.489v-59.971h77.962l-28.486 59.971zM438.536 960l-438.536-256.375v-512l438.536-256.375 438.536 256.375v512l-438.536 256.375zM637.189 343.051h-25.488c3.748 0 5.997-12.744 5.997-20.24 0-24.738-20.24-43.479-44.978-43.479s-44.978 18.741-44.978 43.479c0 8.246 2.249 20.99 5.997 20.99h-123.69c3.748 0 5.997-12.744 5.997-20.24 0-24.738-20.24-43.479-44.978-43.479s-44.978 18.741-44.978 43.479c0 8.246 2.249 20.99 5.997 20.99h-28.486l-18.741 23.988v179.163c0 11.994 7.496 20.24 19.49 20.24h200.902c11.994 0 18.741-7.496 18.741-20.24v-47.227h70.466l43.479-87.707-0.75 0.75v-70.466z" />
<glyph unicode="&#xe655;" glyph-name="hex-truck2-outline" horiz-adv-x="877" d="M438.536-64l-438.536 256.375v511.25l438.536 256.375 438.536-256.375v-512l-438.536-255.625zM59.971 226.858l378.565-221.142 378.565 221.142v442.284l-378.565 221.142-378.565-221.142v-442.284zM260.873 421.763v-66.717h28.486c-3.748-6.747-5.997-14.243-5.997-22.489 0-24.738 20.24-44.978 44.978-44.978s44.978 20.24 44.978 44.978c0 8.246-2.249 15.742-5.997 22.489h123.69c-3.748-6.747-5.997-14.243-5.997-22.489 0-24.738 20.24-44.978 44.978-44.978s44.978 20.24 44.978 44.978c0 8.246-2.249 15.742-5.997 22.489h28.486l22.489 22.489v178.413c0 11.994-9.745 22.489-22.489 22.489h-202.401c-11.994 0-22.489-9.745-22.489-22.489v-44.978h-66.717l-44.978-89.206zM298.354 421.763l27.736 56.223h46.477v-56.223h-74.214z" />
<glyph unicode="&#xe656;" glyph-name="hex-truck2-solid" horiz-adv-x="877" d="M298.354 423.262h76.463v52.474h-48.726zM438.536 960l-438.536-256.375v-512l438.536-256.375 438.536 256.375v512l-438.536 256.375zM622.196 376.785l-26.237-20.99h-28.486c3.748-7.496 5.997-14.993 5.997-23.239 0-24.738-20.24-44.978-44.978-44.978s-44.978 20.24-44.978 44.978c0 8.246 2.249 15.742 5.997 23.239h-122.94c3.748-7.496 5.997-14.993 5.997-23.239 0-24.738-20.24-44.978-44.978-44.978s-44.978 20.24-44.978 44.978c0 8.246 2.249 15.742 5.997 23.239h-26.237v65.218l-0.75 1.499 44.228 90.706h68.966v41.98c0 11.994 8.246 25.488 20.24 25.488h200.902c11.994 0 26.237-12.744 26.237-25.488v-178.413z" />
<glyph unicode="&#xe657;" glyph-name="hex-user-outline" horiz-adv-x="876" d="M602.573 331.977v-38.175h-321.871v38.175l107.041 68.865v26.947c-6.737 0-12.725 6.737-18.713 20.211s-8.234 24.702-8.234 33.684v53.895c0 22.456 8.234 41.17 23.953 56.889s34.433 23.953 56.889 23.953c22.456 0 41.17-8.234 56.889-23.953s23.953-34.433 23.953-56.889v-53.895c0-8.982-2.994-20.211-8.234-33.684-5.988-13.474-11.977-20.211-18.713-20.211v-26.947l107.041-68.865zM437.895-64l-437.895 256v512l437.895 256 437.895-256v-511.251l-437.895-256.749zM59.883 226.433l374.269-220.819 374.269 220.819v443.135l-374.269 220.819-374.269-220.819v-443.135z" />
<glyph unicode="&#xe658;" glyph-name="hex-user-solid" horiz-adv-x="868" d="M434.152 960l-434.152-256v-511.251l434.152-256 434.152 256v511.251l-434.152 256zM598.83 296.047h-321.871v35.93l104.795 68.865v26.947c-7.485 0-14.222 6.737-20.211 20.211s-9.731 24.702-9.731 33.684v53.895c0 22.456 9.731 41.17 25.45 56.889s35.181 23.953 57.637 23.953c22.456 0 41.918-8.234 57.637-23.953s23.953-34.433 23.953-56.889v-53.895c0-8.982-4.491-20.211-9.731-33.684-5.988-13.474-12.725-20.211-20.211-20.211v-26.947l112.281-68.865v-35.93z" />
<glyph unicode="&#xe659;" glyph-name="hex-volume-outline" horiz-adv-x="877" d="M438.536-58.753l-438.536 256.375v512l438.536 255.625 438.536-255.625v-512l-438.536-256.375zM59.971 232.105l378.565-221.142 378.565 221.142v443.034l-378.565 220.392-378.565-220.392v-443.034zM556.978 313.066c-4.498 0-8.246 1.499-11.994 4.498-6.747 6.747-6.747 16.492 0 23.239 29.985 29.985 46.477 69.716 46.477 112.445s-16.492 82.46-46.477 112.445c-6.747 6.747-6.747 16.492 0 23.239s16.492 6.747 23.239 0c35.982-35.982 56.223-84.709 56.223-135.684s-20.24-99.701-56.223-135.684c-2.999-2.999-6.747-4.498-11.245-4.498v0zM498.507 343.801c-4.498 0-8.246 1.499-11.994 4.498-6.747 6.747-6.747 16.492 0 23.239 44.978 44.978 44.978 117.693 0 162.671-6.747 6.747-6.747 16.492 0 23.239s16.492 6.747 23.239 0c27.736-27.736 43.479-65.218 43.479-104.949s-15.742-76.463-43.479-104.949c-2.999-2.249-6.747-3.748-11.245-3.748v0zM440.035 375.286c-4.498 0-8.246 1.499-11.994 4.498-6.747 6.747-6.747 16.492 0 23.239 27.736 27.736 27.736 72.714 0 100.451-6.747 6.747-6.747 16.492 0 23.239s16.492 6.747 23.239 0c40.48-40.48 40.48-106.448 0-146.928-2.249-2.999-6.747-4.498-11.245-4.498v0zM389.81 601.675c8.996 8.996 15.742 5.997 15.742-6.747v-283.362c0-12.744-7.496-15.742-15.742-6.747l-82.46 82.46h-54.723v131.936h54.723l82.46 82.46z" />
<glyph unicode="&#xe65a;" glyph-name="hex-volume-solid" horiz-adv-x="877" d="M438.536 964.498l-438.536-255.625v-512l438.536-256.375 438.536 256.375v512l-438.536 255.625zM404.802 310.817c0-12.744-6.747-13.493-15.742-5.247l-81.71 84.709h-52.474v127.438h52.474l82.46 83.209c7.496 8.996 14.993 5.997 14.993-6.747v-283.362zM440.035 374.536v0c-4.498 0-8.246 1.499-11.245 4.498-6.747 6.747-6.747 16.492 0 23.239 27.736 27.736 27.736 72.714 0 100.451-6.747 6.747-6.747 16.492 0 23.239s16.492 6.747 23.239 0c40.48-40.48 40.48-106.448 0-146.928-2.999-2.999-7.496-4.498-11.994-4.498zM498.507 343.051v0c-4.498 0-8.246 1.499-11.245 4.498-6.747 6.747-6.747 16.492 0 23.239 44.978 44.978 44.978 117.693 0 162.671-6.747 6.747-6.747 16.492 0 23.239s16.492 6.747 23.239 0c27.736-27.736 43.479-65.218 43.479-104.949s-15.742-76.463-43.479-104.949c-3.748-1.499-7.496-3.748-11.994-3.748zM567.473 316.814c-2.999-2.999-5.247-2.999-12.744-2.999v0c0 0-7.496 0.75-10.495 3.748-6.747 6.747-5.997 16.492 0.75 22.489 29.985 29.985 46.477 69.716 46.477 112.445s-16.492 82.46-46.477 112.445c-6.747 6.747-5.997 16.492 0 23.239 6.747 6.747 17.242 6.747 23.239 0 35.982-35.982 55.473-84.709 55.473-135.684 0.75-50.975-20.24-98.952-56.223-135.684z" />
<glyph unicode="&#xe65b;" glyph-name="hex-waiting-outline" horiz-adv-x="879" d="M439.501-64l-439.501 256.188v511.624l439.501 256.188 439.501-256.188v-511.624l-439.501-256.188zM60.103 226.747l379.398-220.877 379.398 220.877v442.506l-379.398 220.877-379.398-220.877v-442.506zM444.76 505.473c33.808 30.803 54.092 58.6 56.346 67.616h-111.941c2.254-9.767 22.539-36.813 55.595-67.616zM559.707 572.337c0 56.346 0 83.393 0 83.393h24.041v28.549h-277.224v-28.549h24.041c0 0 0-27.798 0-83.393 0-42.072 63.108-99.921 94.662-126.216-31.554-26.295-94.662-84.144-94.662-126.216 0-56.346 0-83.393 0-83.393h-24.041v-28.549h276.472v28.549h-24.041c0 0 0 27.798 0 83.393 0 42.072-63.108 99.921-94.662 126.216 32.305 26.295 95.413 84.144 95.413 126.216zM531.158 319.906v-54.844h-16.528c-2.254 9.767-27.798 45.828-69.118 84.144-42.072-38.315-66.864-74.377-69.118-84.144h-16.528v54.844c0 24.041 46.58 71.372 85.646 104.428 42.823-35.31 85.646-81.89 85.646-104.428zM444.76 467.909c-43.574 36.062-85.646 82.641-85.646 104.428v54.844h171.293v-54.844c0.751-24.041-45.828-71.372-85.646-104.428z" />
<glyph unicode="&#xe65c;" glyph-name="home" d="M1024 352l-192 192v288h-128v-160l-192 192-512-512v-32h128v-320h320v192h128v-192h320v320h128z" />
<glyph unicode="&#xe65d;" glyph-name="stopwatch" d="M512.002 766.788v65.212h128v64c0 35.346-28.654 64-64.002 64h-191.998c-35.346 0-64-28.654-64-64v-64h128v-65.212c-214.798-16.338-384-195.802-384-414.788 0-229.75 186.25-416 416-416s416 186.25 416 416c0 218.984-169.202 398.448-384 414.788zM706.276 125.726c-60.442-60.44-140.798-93.726-226.274-93.726s-165.834 33.286-226.274 93.726c-60.44 60.44-93.726 140.8-93.726 226.274s33.286 165.834 93.726 226.274c58.040 58.038 134.448 91.018 216.114 93.548l-21.678-314.020c-1.86-26.29 12.464-37.802 31.836-37.802s33.698 11.512 31.836 37.802l-21.676 314.022c81.666-2.532 158.076-35.512 216.116-93.55 60.44-60.44 93.726-140.8 93.726-226.274s-33.286-165.834-93.726-226.274z" />
<glyph unicode="&#xe65e;" glyph-name="bubbles" horiz-adv-x="1152" d="M480 960v0c265.096 0 480-173.914 480-388.448s-214.904-388.448-480-388.448c-25.458 0-50.446 1.62-74.834 4.71-103.106-102.694-222.172-121.108-341.166-123.814v25.134c64.252 31.354 116 88.466 116 153.734 0 9.106-0.712 18.048-2.030 26.794-108.558 71.214-177.97 179.988-177.97 301.89 0 214.534 214.904 388.448 480 388.448zM996 89.314c0-55.942 36.314-104.898 92-131.772v-21.542c-103.126 2.318-197.786 18.102-287.142 106.126-21.14-2.65-42.794-4.040-64.858-4.040-95.47 0-183.408 25.758-253.614 69.040 144.674 0.506 281.26 46.854 384.834 130.672 52.208 42.252 93.394 91.826 122.414 147.348 30.766 58.866 46.366 121.582 46.366 186.406 0 10.448-0.45 20.836-1.258 31.168 72.57-59.934 117.258-141.622 117.258-231.676 0-104.488-60.158-197.722-154.24-258.764-1.142-7.496-1.76-15.16-1.76-22.966z" />
<glyph unicode="&#xe65f;" glyph-name="hex-waiting-solid" horiz-adv-x="879" d="M443.258 467.909c39.818 33.056 82.641 80.387 82.641 104.428v51.839h-165.282v-51.839c0-21.787 39.067-68.367 82.641-104.428zM498.853 573.089c-1.503-9.015-22.539-36.813-56.346-67.616-33.808 30.803-54.092 58.6-56.346 67.616h112.693zM360.616 319.906v-56.346h12.772c2.254 7.513 27.798 45.828 69.118 84.144 41.321-38.315 66.864-76.631 69.118-84.144h14.274v56.346c0 22.539-39.067 68.367-82.641 104.428-39.818-32.305-82.641-80.387-82.641-104.428zM439.501 960l-439.501-256.188v-511.624l439.501-256.188 439.501 256.188v511.624l-439.501 256.188zM578.489 654.979h-22.539c0 0 0-26.295 0-81.89 0-42.072-63.108-99.921-94.662-126.216 31.554-27.046 94.662-84.895 94.662-126.967 0-56.346 0-86.398 0-86.398h22.539v-22.539h-270.462v22.539h22.539c0 0 0 30.051 0 86.398 0 42.072 63.108 99.921 94.662 126.216-31.554 26.295-94.662 84.144-94.662 126.216 0 56.346 0 81.89 0 81.89h-22.539v30.051h270.462v-29.3z" />
<glyph unicode="&#xe660;" glyph-name="twitter" d="M1024 765.582c-37.676-16.708-78.164-28.002-120.66-33.080 43.372 26 76.686 67.17 92.372 116.23-40.596-24.078-85.556-41.56-133.41-50.98-38.32 40.83-92.922 66.34-153.346 66.34-116.022 0-210.088-94.058-210.088-210.078 0-16.466 1.858-32.5 5.44-47.878-174.6 8.764-329.402 92.4-433.018 219.506-18.084-31.028-28.446-67.116-28.446-105.618 0-72.888 37.088-137.192 93.46-174.866-34.438 1.092-66.832 10.542-95.154 26.278-0.020-0.876-0.020-1.756-0.020-2.642 0-101.788 72.418-186.696 168.522-206-17.626-4.8-36.188-7.372-55.348-7.372-13.538 0-26.698 1.32-39.528 3.772 26.736-83.46 104.32-144.206 196.252-145.896-71.9-56.35-162.486-89.934-260.916-89.934-16.958 0-33.68 0.994-50.116 2.94 92.972-59.61 203.402-94.394 322.042-94.394 386.422 0 597.736 320.124 597.736 597.744 0 9.108-0.206 18.168-0.61 27.18 41.056 29.62 76.672 66.62 104.836 108.748z" />
<glyph unicode="&#xe661;" glyph-name="LifeLetters-logo" horiz-adv-x="877" d="M869.575 591.18l-198.653 114.694v114.694l-228.638 131.936-227.889-131.936v-114.694l-199.403-114.694v-263.871l198.653-114.694v-114.694l228.638-131.936 228.638 131.936v114.694l198.653 114.694v263.871zM612.451 280.082l-140.931 80.96v47.977l140.931-80.96v-47.977zM272.117 638.407l140.931-80.96v-47.977l-140.931 81.71v47.227zM272.117 280.082v47.977l140.931 80.96v-47.977l-140.931-80.96zM471.52 557.447l140.931 80.96v-47.977l-140.931-80.96v47.977zM442.284 885.037l170.167-98.202v-80.96l-170.167-98.202-170.167 98.202v80.96l170.167 98.202zM73.464 361.042v196.404l140.931 80.96v-81.71l169.417-98.202-169.417-97.452v-81.71l-140.931 81.71zM442.284 33.452l-170.167 98.202v80.96l170.167 98.202 170.167-98.202v-80.96l-170.167-98.202zM811.104 361.042l-140.182-80.96v80.96l-170.167 98.202 169.417 98.202v80.96l140.931-80.96v-196.404z" />
<glyph unicode="&#xe662;" glyph-name="hex-question-outline" horiz-adv-x="877" d="M439.286-64l-444.533 254.876-1.499 512 443.034 257.124 444.533-254.876 1.499-512-443.034-257.124zM52.474 223.859l386.811-221.892 385.312 224.141-1.499 446.032-386.811 221.142-385.312-223.391 1.499-446.032zM475.268 529.71c0 26.237-16.492 44.228-44.228 44.228-22.489 0-40.48-11.245-56.972-28.486l-35.233 32.234c23.988 27.736 56.223 47.977 95.953 47.977 59.221 0 101.95-31.485 101.95-91.455 0-69.716-85.458-94.454-77.962-165.669h-55.473c-11.994 80.211 71.965 111.695 71.965 161.171zM431.040 329.558c23.239 0 41.23-17.991 41.23-42.729s-17.991-42.729-41.23-42.729c-23.239 0-40.48 17.991-40.48 42.729s17.242 42.729 40.48 42.729z" />
<glyph unicode="&#xe663;" glyph-name="hex-question-solid" horiz-adv-x="877" d="M438.536 960l-438.536-256.375v-512l438.536-256.375 438.536 256.375v512l-438.536 256.375zM431.789 243.35c-23.239 0-40.48 17.991-40.48 42.729s17.242 42.729 40.48 42.729c23.239 0 41.23-17.991 41.23-42.729 0-23.988-17.991-42.729-41.23-42.729zM459.526 370.788h-55.473c-11.245 74.963 71.965 110.196 71.965 159.672 0 26.237-16.492 43.479-44.228 43.479-22.489 0-40.48-11.245-56.972-29.236l-35.233 32.984c23.988 27.736 56.223 47.977 95.953 47.977 59.221 0 101.95-29.985 101.95-89.956 0-70.466-85.458-97.452-77.962-164.919z" />
<glyph unicode="&#xe664;" glyph-name="lock" d="M592 512h-16v192c0 105.87-86.13 192-192 192h-128c-105.87 0-192-86.13-192-192v-192h-16c-26.4 0-48-21.6-48-48v-480c0-26.4 21.6-48 48-48h544c26.4 0 48 21.6 48 48v480c0 26.4-21.6 48-48 48zM384 64h-128l27.84 139.2c-16.808 11.532-27.84 30.874-27.84 52.8 0 35.346 28.654 64 64 64s64-28.654 64-64c0-21.926-11.032-41.268-27.84-52.8l27.84-139.2zM448 512h-256v192c0 35.29 28.71 64 64 64h128c35.29 0 64-28.71 64-64v-192z" />
<glyph unicode="&#xe665;" glyph-name="hex-print-outline" horiz-adv-x="877" d="M439.286-64l-442.284 253.376-1.499 509.751 440.785 256.375 442.284-253.376 1.499-509.751-440.785-256.375zM53.974 222.36l384.562-220.392 383.813 222.641-1.499 443.783-384.562 221.142-383.813-223.391 1.499-443.783zM335.086 624.914h205.4v-50.975h-205.4v50.975zM616.949 548.451h-359.075c-14.243 0-25.488-11.245-25.488-25.488v-128.187c0-14.243 11.245-25.488 25.488-25.488h77.212v-102.7h205.4v101.95h77.212c14.243 0 25.488 11.245 25.488 25.488v128.937c-0.75 13.493-11.994 25.488-26.237 25.488zM514.249 292.076h-153.675v128.187h153.675v-128.187zM622.946 509.47c0-10.495-8.246-18.741-18.741-18.741s-18.741 8.246-18.741 18.741c0 10.495 8.246 18.741 18.741 18.741s18.741-8.246 18.741-18.741z" />
<glyph unicode="&#xe666;" horiz-adv-x="877" d="M438.536 960l-438.536-256.375v-512l438.536-256.375 438.536 256.375v512l-438.536 256.375z" />
<glyph unicode="&#xe667;" horiz-adv-x="877" d="M335.836 627.912h206.149v-51.725h-206.149v51.725zM618.448 550.7h-359.824c-14.243 0-25.488-11.245-25.488-25.488v-128.937c0-14.243 11.245-25.488 25.488-25.488h77.212v-102.7h206.149v102.7h77.212c14.243 0 25.488 11.245 25.488 25.488v128.937c0 14.243-11.994 25.488-26.237 25.488zM515.748 293.575h-154.425v128.937h154.425v-128.937zM624.445 512.469c0-10.495-8.246-18.741-18.741-18.741s-18.741 8.246-18.741 18.741 8.246 18.741 18.741 18.741 18.741-8.246 18.741-18.741z" />
<glyph unicode="&#xe668;" glyph-name="warning" d="M512 801.276l-344.834-737.276h689.668l-344.834 737.276zM512 960v0c22.070 0 44.14-14.882 60.884-44.648l437.072-871.112c33.49-59.532 5-108.24-63.302-108.24h-869.308c-68.304 0-96.79 48.708-63.304 108.24l437.074 871.112c16.744 29.766 38.814 44.648 60.884 44.648zM448 192c0 35.346 28.654 64 64 64s64-28.654 64-64c0-35.346-28.654-64-64-64s-64 28.654-64 64zM512 576c35.346 0 64-28.654 64-64l-20-192h-88l-20 192c0 35.346 28.654 64 64 64z" />
<glyph unicode="&#xe669;" glyph-name="close" d="M1014.662 137.34c-0.004 0.004-0.008 0.008-0.012 0.010l-310.644 310.65 310.644 310.65c0.004 0.004 0.008 0.006 0.012 0.010 3.344 3.346 5.762 7.254 7.312 11.416 4.246 11.376 1.824 24.682-7.324 33.83l-146.746 146.746c-9.148 9.146-22.45 11.566-33.828 7.32-4.16-1.55-8.070-3.968-11.418-7.31 0-0.004-0.004-0.006-0.008-0.010l-310.648-310.652-310.648 310.65c-0.004 0.004-0.006 0.006-0.010 0.010-3.346 3.342-7.254 5.76-11.414 7.31-11.38 4.248-24.682 1.826-33.83-7.32l-146.748-146.748c-9.148-9.148-11.568-22.452-7.322-33.828 1.552-4.16 3.97-8.072 7.312-11.416 0.004-0.002 0.006-0.006 0.010-0.010l310.65-310.648-310.65-310.652c-0.002-0.004-0.006-0.006-0.008-0.010-3.342-3.346-5.76-7.254-7.314-11.414-4.248-11.376-1.826-24.682 7.322-33.83l146.748-146.746c9.15-9.148 22.452-11.568 33.83-7.322 4.16 1.552 8.070 3.97 11.416 7.312 0.002 0.004 0.006 0.006 0.010 0.010l310.648 310.65 310.648-310.65c0.004-0.002 0.008-0.006 0.012-0.008 3.348-3.344 7.254-5.762 11.414-7.314 11.378-4.246 24.684-1.826 33.828 7.322l146.746 146.748c9.148 9.148 11.57 22.454 7.324 33.83-1.552 4.16-3.97 8.068-7.314 11.414z" />
<glyph unicode="&#xe66a;" glyph-name="checkmark" d="M864 832l-480-480-224 224-160-160 384-384 640 640z" />
<glyph unicode="&#xe66b;" glyph-name="googleplus-solid" d="M0.806 90.336c-0.244 2.532-0.452 5.070-0.584 7.63 0.13-2.56 0.34-5.098 0.584-7.63zM235.908 394.852c92.010-2.738 153.734 92.698 137.862 213.198-15.894 120.48-103.396 217.168-195.408 219.922-92.026 2.73-153.74-89.482-137.852-210 15.882-120.468 103.352-220.374 195.398-223.12zM1024 704v85.31c0 93.88-76.782 170.69-170.658 170.69h-682.656c-92.276 0-168.012-74.232-170.564-165.926 58.362 51.386 139.324 94.316 222.874 94.316 89.304 0 357.244 0 357.244 0l-79.948-67.618h-113.268c75.13-28.804 115.156-116.124 115.156-205.722 0-75.248-41.81-139.954-100.888-185.968-57.644-44.902-68.572-63.708-68.572-101.878 0-32.578 61.746-88 94.032-110.788 94.382-66.538 124.916-128.312 124.916-231.456 0-16.428-2.042-32.83-6.066-48.96h307.742c93.874 0 170.656 76.75 170.656 170.69v533.308h-192v-191.998h-64v192h-191.998v64h191.998v192h64v-192h192zM185.886 194.064c21.614 0 41.422 0.59 61.936 0.59-27.146 26.334-48.626 58.6-48.626 98.38 0 23.608 7.564 46.336 18.134 66.52-10.782-0.77-21.79-0.994-33.126-0.994-74.356 0-137.506 24.076-184.204 63.854v-67.242l0.006-201.73c53.44 25.374 116.888 40.622 185.88 40.622zM3.42 72.742c-1.112 5.458-1.966 11.006-2.542 16.634 0.574-5.628 1.43-11.176 2.542-16.634zM455.45 7.154c-15.058 58.806-68.454 87.964-142.888 139.568-27.072 8.732-56.894 13.874-88.894 14.208-89.618 0.964-173.108-34.942-220.216-88.372 15.92-77.706 85.034-136.558 167.234-136.558h286.444c1.816 11.128 2.696 22.632 2.696 34.432 0 12.534-1.534 24.792-4.376 36.722z" />
<glyph unicode="&#xe66c;" glyph-name="facebook" d="M575.87-64h-191.87v512h-128v176.45l128 0.058-0.208 103.952c0 143.952 39.034 231.54 208.598 231.54h141.176v-176.484h-88.23c-66.032 0-69.206-24.656-69.206-70.684l-0.262-88.324h158.69l-18.704-176.45-139.854-0.058-0.13-512z" />
<glyph unicode="&#xe66d;" glyph-name="facebook-solid" d="M853.344 960h-682.66c-93.872 0-170.684-76.814-170.684-170.688v-682.626c0-93.938 76.812-170.686 170.684-170.686l682.66 0.002c93.876 0 170.656 76.746 170.656 170.688v682.622c0 93.874-76.782 170.688-170.656 170.688zM870.592 448h-166.592v-448h-192v448h-92.526v146.564h92.526v95.186c0 129.342 55.792 206.25 207.87 206.25h175.244v-158.57h-143.13c-42.482 0.070-47.752-22.152-47.752-63.512l-0.232-79.354h192l-25.408-146.564z" />
<glyph unicode="&#xe66e;" glyph-name="twitter-solid" d="M853.342 960h-682.656c-93.874 0-170.686-76.81-170.686-170.69v-682.622c0-93.938 76.812-170.688 170.686-170.688h682.656c93.876 0 170.658 76.75 170.658 170.69v682.62c0 93.88-76.782 170.69-170.658 170.69zM838.052 618.166c0.328-7.342 0.49-14.728 0.49-22.148 0-226.214-169.216-487.068-478.658-487.068-95.004 0-183.434 28.348-257.886 76.918 13.16-1.588 26.552-2.394 40.13-2.394 78.822 0 151.358 27.37 208.934 73.282-73.616 1.38-135.744 50.876-157.154 118.882 10.274-2 20.812-3.074 31.652-3.074 15.344 0 30.206 2.096 44.32 6.008-76.96 15.732-134.95 84.916-134.95 167.856 0 0.722 0 1.438 0.016 2.152 22.68-12.82 48.624-20.52 76.2-21.41-45.142 30.698-74.842 83.092-74.842 142.488 0 31.37 8.294 60.778 22.778 86.058 82.974-103.57 206.936-171.72 346.754-178.862-2.87 12.532-4.358 25.596-4.358 39.014 0 94.538 75.326 171.18 168.23 171.18 48.39 0 92.118-20.786 122.802-54.058 38.32 7.676 74.324 21.92 106.832 41.542-12.562-39.976-39.234-73.522-73.966-94.71 34.026 4.138 66.452 13.34 96.62 26.954-22.546-34.324-51.070-64.476-83.944-88.61z" />
<glyph unicode="&#xe66f;" glyph-name="youtube-solid" d="M832 832h-640c-105.6 0-192-86.4-192-192v-384c0-105.6 86.4-192 192-192h640c105.6 0 192 86.4 192 192v384c0 105.6-86.4 192-192 192zM384 192v512l320-256-320-256z" />
</font>
</defs>
</svg>
